<svg id="logo-gato-da-sorte" xmlns="http://www.w3.org/2000/svg" viewBox="0 0 89.04 76.02"><defs><style>.cls-1{fill:#fff;}</style></defs><path class="cls-1" d="M86.47,70.36C83.54,59,73.64,62.63,68.12,69.43s-11.35,7.1-15.37,6.29a18.83,18.83,0,0,1-6.87-3A36.92,36.92,0,0,1,.08,34.54C1.94,5.84,35.61-10.62,59.4,7.74,61.45,8.86,75.35,20.6,73.66,40.18a1.31,1.31,0,0,1-2.6-.23,34.09,34.09,0,0,0-.19-7.68,36.29,36.29,0,0,1-3.06,9.88,37.83,37.83,0,0,1,.56,8.47A33.3,33.3,0,0,0,70,45.81a1.31,1.31,0,1,1,2.52.68A36.91,36.91,0,0,1,49.24,71.74c5.92,3,11.9,2.13,16.85-4C73.67,58.46,85.68,56.85,89,69.71a1.31,1.31,0,0,1-2.53.65ZM21.26,67.48a40.82,40.82,0,0,1-5.65-6,39.19,39.19,0,0,1-5.48-3.09A34.73,34.73,0,0,0,21.26,67.48ZM5.76,51.3a35.89,35.89,0,0,0,6.79,5.53,39.45,39.45,0,0,1-2.44-5.13A38,38,0,0,1,4.44,48,31.19,31.19,0,0,0,5.76,51.3ZM3.24,43.51A35.21,35.21,0,0,0,8.85,48a40.93,40.93,0,0,1-.93-4.12,36.18,36.18,0,0,1-5-2.49C3,42.15,3.11,42.84,3.24,43.51ZM2.63,38.1a34.39,34.39,0,0,0,4.89,2.72c-.12-1.25-.19-2.49-.19-3.85s.07-2.66.2-4a33.06,33.06,0,0,0-4.88,2.42C2.6,36.5,2.61,37.32,2.63,38.1Zm.31-5.88a36.17,36.17,0,0,1,5-2.19,39.71,39.71,0,0,1,1.42-5.71,35.16,35.16,0,0,0-5.35,3A34.36,34.36,0,0,0,2.94,32.22ZM7.65,19.09a35.44,35.44,0,0,0-2.23,4.28A38.06,38.06,0,0,1,10.61,21a39.08,39.08,0,0,1,2.77-5.28A34.53,34.53,0,0,0,7.65,19.09Zm4.27-5.58a36.15,36.15,0,0,1,4.23-1.74,41.49,41.49,0,0,1,5.11-5.32A34.4,34.4,0,0,0,11.92,13.51ZM56.67,9a27.79,27.79,0,0,0-13.5,3.94,37.31,37.31,0,0,1,12.37,7.31A35.1,35.1,0,0,0,57.46,9.53ZM63,14.71a33.67,33.67,0,0,0-3-3.1A37.6,37.6,0,0,1,57.6,22.18a38.46,38.46,0,0,1,4.3,5.3A35.22,35.22,0,0,0,63,14.71Zm5.8,9.57a33.61,33.61,0,0,0-3-5.84,37.74,37.74,0,0,1-2,12,38.84,38.84,0,0,1,3.07,7.34A36.62,36.62,0,0,0,68.76,24.28ZM62.47,59.81A33,33,0,0,0,65,56.69,35.6,35.6,0,0,0,40.44,14.76,28.42,28.42,0,0,0,35,20.25,38.11,38.11,0,0,1,62.47,59.81Zm-3,2.94a35.48,35.48,0,0,0-26-40.22,27.65,27.65,0,0,0-2.81,6.26A38.05,38.05,0,0,1,56.73,64.94,34.84,34.84,0,0,0,59.5,62.75ZM48.92,46.5a36.31,36.31,0,0,0-5.19-6.64A38,38,0,0,1,30.82,45.6a28,28,0,0,0,3.62,7.26A35.3,35.3,0,0,0,48.92,46.5ZM36.21,55.16a28.24,28.24,0,0,0,6.69,5.7A36.38,36.38,0,0,0,53,56a36.16,36.16,0,0,0-2.75-7.2A37.91,37.91,0,0,1,36.21,55.16ZM41.78,38A34.46,34.46,0,0,0,30,31.32a27.8,27.8,0,0,0,.1,11.77A35.06,35.06,0,0,0,41.78,38ZM54.12,64.78a35.85,35.85,0,0,0-.56-6.06,39.52,39.52,0,0,1-7.5,3.82A27.67,27.67,0,0,0,54.12,64.78Zm-1.18,2.49A30,30,0,0,1,34.12,56.8C18.26,37.86,29.82,10.07,53,6.67a33.7,33.7,0,0,0-6.84-2.74,33.71,33.71,0,0,0-26.37,29,1.3,1.3,0,1,1-2.59-.31A36.46,36.46,0,0,1,40.51,2.86a34.74,34.74,0,0,0-9.82.38C3.47,17,2.68,56.53,30.7,70.69a34.32,34.32,0,0,0,9.81.38A36.41,36.41,0,0,1,17,38.94a1.3,1.3,0,0,1,1.23-1.37h.07a1.3,1.3,0,0,1,1.3,1.23A33.8,33.8,0,0,0,46.11,70,34.91,34.91,0,0,0,52.94,67.27Z"/></svg>