<svg xmlns="http://www.w3.org/2000/svg" width="68" height="68" viewBox="0 0 68 68"><g transform="translate(-0.356 0.095)"><g transform="translate(0.356 -0.095)" fill="#ff605a"><path d="M 34 67.5 C 29.47731018066406 67.5 25.09016990661621 66.61434173583984 20.96043968200684 64.86760711669922 C 16.97134971618652 63.18035888671875 13.38866996765137 60.76482009887695 10.31192016601563 57.68807983398438 C 7.235179901123047 54.611328125 4.819640159606934 51.02864837646484 3.132390022277832 47.03955841064453 C 1.3856600522995 42.90982818603516 0.5 38.52268981933594 0.5 34 C 0.5 29.47731018066406 1.3856600522995 25.09016990661621 3.132390022277832 20.96043968200684 C 4.819640159606934 16.97134971618652 7.235179901123047 13.38866996765137 10.31192016601563 10.31192016601563 C 13.38866996765137 7.235179901123047 16.97134971618652 4.819640159606934 20.96043968200684 3.132390022277832 C 25.09016990661621 1.3856600522995 29.47731018066406 0.5 34 0.5 C 38.52268981933594 0.5 42.90982818603516 1.3856600522995 47.03955841064453 3.132390022277832 C 51.02864837646484 4.819640159606934 54.611328125 7.235179901123047 57.68807983398438 10.31192016601563 C 60.76482009887695 13.38866996765137 63.18035888671875 16.97134971618652 64.86760711669922 20.96043968200684 C 66.61434173583984 25.09016990661621 67.5 29.47731018066406 67.5 34 C 67.5 38.52268981933594 66.61434173583984 42.90982818603516 64.86760711669922 47.03955841064453 C 63.18035888671875 51.02864837646484 60.76482009887695 54.611328125 57.68807983398438 57.68807983398438 C 54.611328125 60.76482009887695 51.02864837646484 63.18035888671875 47.03955841064453 64.86760711669922 C 42.90982818603516 66.61434173583984 38.52268981933594 67.5 34 67.5 Z" stroke="none"/><path d="M 34 1 C 29.54458999633789 1 25.22298049926758 1.872383117675781 21.15522003173828 3.592887878417969 C 17.2257194519043 5.254928588867188 13.69646072387695 7.634490966796875 10.66548156738281 10.66548156738281 C 7.634490966796875 13.69646072387695 5.254928588867188 17.2257194519043 3.592887878417969 21.15522003173828 C 1.872383117675781 25.22298049926758 1 29.54458999633789 1 34 C 1 38.45541000366211 1.872383117675781 42.77701950073242 3.592887878417969 46.84477996826172 C 5.254928588867188 50.7742805480957 7.634490966796875 54.30353927612305 10.66548156738281 57.33451843261719 C 13.69646072387695 60.36550903320313 17.2257194519043 62.74507141113281 21.15522003173828 64.40711212158203 C 25.22298049926758 66.12761688232422 29.54458999633789 67 34 67 C 38.45541000366211 67 42.77701950073242 66.12761688232422 46.84477996826172 64.40711212158203 C 50.7742805480957 62.74507141113281 54.30353927612305 60.36550903320313 57.33451843261719 57.33451843261719 C 60.36550903320313 54.30353927612305 62.74507141113281 50.7742805480957 64.40711212158203 46.84477996826172 C 66.12761688232422 42.77701950073242 67 38.45541000366211 67 34 C 67 29.54458999633789 66.12761688232422 25.22298049926758 64.40711212158203 21.15522003173828 C 62.74507141113281 17.2257194519043 60.36550903320313 13.69646072387695 57.33451843261719 10.66548156738281 C 54.30353927612305 7.634490966796875 50.7742805480957 5.254928588867188 46.84477996826172 3.592887878417969 C 42.77701950073242 1.872383117675781 38.45541000366211 1 34 1 M 34 0 C 52.77767944335938 0 68 15.22232055664063 68 34 C 68 52.77767944335938 52.77767944335938 68 34 68 C 15.22232055664063 68 0 52.77767944335938 0 34 C 0 15.22232055664063 15.22232055664063 0 34 0 Z" stroke="none" fill="#fff"/></g><g transform="translate(13.417 13.977)"><path d="M670.964,150.122h9.109a8.559,8.559,0,0,0,8.549-8.549V117.205a8.559,8.559,0,0,0-8.549-8.549H655.705a8.559,8.559,0,0,0-8.549,8.549v24.367a8.559,8.559,0,0,0,8.549,8.549h10.4a1.055,1.055,0,1,0,0-2.111h-10.4a6.446,6.446,0,0,1-6.439-6.439V117.205a6.446,6.446,0,0,1,6.439-6.439h24.367a6.446,6.446,0,0,1,6.439,6.439v24.367a6.446,6.446,0,0,1-6.439,6.439h-9.109a1.055,1.055,0,1,0,0,2.111Z" transform="translate(-647.156 -108.656)" fill="#fff"/><path d="M715.9,164.527A12.871,12.871,0,1,0,728.77,177.4,12.886,12.886,0,0,0,715.9,164.527Zm0,23.632A10.761,10.761,0,1,1,726.659,177.4,10.773,10.773,0,0,1,715.9,188.159Z" transform="translate(-695.165 -156.665)" fill="#fff"/><path d="M750.106,204.336a7.27,7.27,0,1,0,7.27,7.27A7.278,7.278,0,0,0,750.106,204.336Zm0,12.429a5.159,5.159,0,1,1,5.159-5.159A5.165,5.165,0,0,1,750.106,216.765Z" transform="translate(-729.373 -190.873)" fill="#fff"/><path d="M867.019,143.1a3.423,3.423,0,1,0-3.423,3.423A3.427,3.427,0,0,0,867.019,143.1Zm-4.736,0a1.313,1.313,0,1,1,1.312,1.313A1.314,1.314,0,0,1,862.283,143.1Z" transform="translate(-830.198 -135.308)" fill="#fff"/></g></g></svg>