<svg xmlns="http://www.w3.org/2000/svg" width="39" height="39" viewBox="0 0 39 39"><g transform="translate(-494 -4444)"><circle cx="19.5" cy="19.5" r="19.5" transform="translate(494 4444)" fill="#ff605a"/><g transform="translate(-822.295 3462.922)"><path d="M660.783,132.389H666a4.9,4.9,0,0,0,4.893-4.893V113.549A4.9,4.9,0,0,0,666,108.656H652.049a4.9,4.9,0,0,0-4.893,4.893V127.5a4.9,4.9,0,0,0,4.893,4.893H658a.6.6,0,1,0,0-1.208h-5.953a3.69,3.69,0,0,1-3.685-3.685V113.549a3.69,3.69,0,0,1,3.685-3.685H666a3.689,3.689,0,0,1,3.685,3.685V127.5A3.689,3.689,0,0,1,666,131.181h-5.213a.6.6,0,0,0,0,1.208Z" transform="translate(677.139 880.422)" fill="#fff"/><path d="M710.394,164.527a7.367,7.367,0,1,0,7.367,7.367A7.375,7.375,0,0,0,710.394,164.527Zm0,13.526a6.159,6.159,0,1,1,6.159-6.159A6.166,6.166,0,0,1,710.394,178.053Z" transform="translate(625.768 829.05)" fill="#fff"/><path d="M747,204.336a4.161,4.161,0,1,0,4.161,4.161A4.166,4.166,0,0,0,747,204.336Zm0,7.114a2.953,2.953,0,1,1,2.953-2.953A2.956,2.956,0,0,1,747,211.45Z" transform="translate(589.165 792.447)" fill="#fff"/><path d="M864.091,141.631a1.959,1.959,0,1,0-1.959,1.959A1.962,1.962,0,0,0,864.091,141.631Zm-2.711,0a.751.751,0,1,1,.751.751A.752.752,0,0,1,861.38,141.631Z" transform="translate(481.279 851.904)" fill="#fff"/></g></g></svg>