<svg xmlns="http://www.w3.org/2000/svg" width="47" height="47" viewBox="0 0 47 47"><g transform="translate(2.135 2)"><g transform="translate(-0.135 0)" fill="#ff605a" stroke="#fff" stroke-width="2"><circle cx="21.5" cy="21.5" r="21.5" stroke="none"/><circle cx="21.5" cy="21.5" r="22.5" fill="none"/></g><g transform="translate(8.865 9)"><path d="M661.791,134.146h5.6a5.261,5.261,0,0,0,5.255-5.255V113.911a5.261,5.261,0,0,0-5.255-5.255H652.411a5.261,5.261,0,0,0-5.255,5.255V128.89a5.261,5.261,0,0,0,5.255,5.255H658.8a.649.649,0,1,0,0-1.3h-6.393a3.963,3.963,0,0,1-3.958-3.958V113.911a3.963,3.963,0,0,1,3.958-3.958H667.39a3.963,3.963,0,0,1,3.958,3.958V128.89a3.962,3.962,0,0,1-3.958,3.958h-5.6a.649.649,0,1,0,0,1.3Z" transform="translate(-647.156 -108.656)" fill="#fff"/><path d="M710.939,164.527a7.912,7.912,0,1,0,7.912,7.912A7.921,7.921,0,0,0,710.939,164.527Zm0,14.527a6.615,6.615,0,1,1,6.615-6.615A6.622,6.622,0,0,1,710.939,179.054Z" transform="translate(-698.194 -159.694)" fill="#fff"/><path d="M747.3,204.336a4.469,4.469,0,1,0,4.469,4.469A4.474,4.474,0,0,0,747.3,204.336Zm0,7.64a3.171,3.171,0,1,1,3.171-3.171A3.175,3.175,0,0,1,747.3,211.976Z" transform="translate(-734.56 -196.06)" fill="#fff"/><path d="M864.381,141.776a2.1,2.1,0,1,0-2.1,2.1A2.107,2.107,0,0,0,864.381,141.776Zm-2.911,0a.807.807,0,1,1,.807.807A.808.808,0,0,1,861.469,141.776Z" transform="translate(-841.746 -136.989)" fill="#fff"/></g></g></svg>