<svg xmlns="http://www.w3.org/2000/svg" width="32" height="32" viewBox="0 0 32 32"><g transform="translate(0.452 0.12)"><circle cx="16" cy="16" r="16" transform="translate(-0.452 -0.12)" fill="#ff605a"/><g transform="translate(6.427 6.647)"><path d="M658.217,127.921h4.232a3.976,3.976,0,0,0,3.972-3.972V112.628a3.976,3.976,0,0,0-3.972-3.972H651.128a3.976,3.976,0,0,0-3.972,3.972v11.321a3.976,3.976,0,0,0,3.972,3.972h4.832a.49.49,0,1,0,0-.981h-4.832a3,3,0,0,1-2.991-2.991V112.628a3,3,0,0,1,2.991-2.991h11.321a3,3,0,0,1,2.991,2.991v11.321a3,3,0,0,1-2.991,2.991h-4.232a.49.49,0,0,0,0,.981Z" transform="translate(-647.156 -108.656)" fill="#fff"/><path d="M709.007,164.527a5.98,5.98,0,1,0,5.98,5.98A5.987,5.987,0,0,0,709.007,164.527Zm0,10.98a5,5,0,1,1,5-5A5.005,5.005,0,0,1,709.007,175.507Z" transform="translate(-699.374 -160.874)" fill="#fff"/><path d="M746.214,204.336a3.378,3.378,0,1,0,3.378,3.378A3.381,3.381,0,0,0,746.214,204.336Zm0,5.775a2.4,2.4,0,1,1,2.4-2.4A2.4,2.4,0,0,1,746.214,210.111Z" transform="translate(-736.581 -198.081)" fill="#fff"/><path d="M863.353,141.262a1.59,1.59,0,1,0-1.59,1.59A1.592,1.592,0,0,0,863.353,141.262Zm-2.2,0a.61.61,0,1,1,.61.61A.61.61,0,0,1,861.153,141.262Z" transform="translate(-846.246 -137.644)" fill="#fff"/></g></g></svg>