<svg xmlns="http://www.w3.org/2000/svg" width="68" height="68" viewBox="0 0 68 68"><g transform="translate(-0.356 0.095)"><path d="M34,0A34,34,0,1,1,0,34,34,34,0,0,1,34,0Z" transform="translate(0.356 -0.095)" fill="#ff605a"/><g transform="translate(13.417 13.977)"><path d="M670.964,150.122h9.109a8.559,8.559,0,0,0,8.549-8.549V117.205a8.559,8.559,0,0,0-8.549-8.549H655.705a8.559,8.559,0,0,0-8.549,8.549v24.367a8.559,8.559,0,0,0,8.549,8.549h10.4a1.055,1.055,0,1,0,0-2.111h-10.4a6.446,6.446,0,0,1-6.439-6.439V117.205a6.446,6.446,0,0,1,6.439-6.439h24.367a6.446,6.446,0,0,1,6.439,6.439v24.367a6.446,6.446,0,0,1-6.439,6.439h-9.109a1.055,1.055,0,1,0,0,2.111Z" transform="translate(-647.156 -108.656)" fill="#fff"/><path d="M715.9,164.527A12.871,12.871,0,1,0,728.77,177.4,12.886,12.886,0,0,0,715.9,164.527Zm0,23.632A10.761,10.761,0,1,1,726.659,177.4,10.773,10.773,0,0,1,715.9,188.159Z" transform="translate(-695.165 -156.665)" fill="#fff"/><path d="M750.106,204.336a7.27,7.27,0,1,0,7.27,7.27A7.278,7.278,0,0,0,750.106,204.336Zm0,12.429a5.159,5.159,0,1,1,5.159-5.159A5.165,5.165,0,0,1,750.106,216.765Z" transform="translate(-729.373 -190.873)" fill="#fff"/><path d="M867.019,143.1a3.423,3.423,0,1,0-3.423,3.423A3.427,3.427,0,0,0,867.019,143.1Zm-4.736,0a1.313,1.313,0,1,1,1.312,1.313A1.314,1.314,0,0,1,862.283,143.1Z" transform="translate(-830.198 -135.308)" fill="#fff"/></g></g></svg>