<svg xmlns="http://www.w3.org/2000/svg" width="47" height="47" viewBox="0 0 47 47"><g transform="translate(1.507 2)"><g transform="translate(0.493 0)" fill="#3694a7" stroke="#fff" stroke-width="2"><circle cx="21.5" cy="21.5" r="21.5" stroke="none"/><circle cx="21.5" cy="21.5" r="22.5" fill="none"/></g><g transform="translate(10.492 9)"><path d="M107.861,179.5a1.34,1.34,0,0,0-1.338,1.338v15.923a1.34,1.34,0,0,0,1.338,1.338h3.212a1.34,1.34,0,0,0,1.338-1.338V180.838a1.34,1.34,0,0,0-1.338-1.338Zm3.4,1.338v15.923a.192.192,0,0,1-.191.191h-3.212a.191.191,0,0,1-.191-.191V180.838a.191.191,0,0,1,.191-.191h3.212A.191.191,0,0,1,111.264,180.838Z" transform="translate(-106.523 -172.6)" fill="#fff"/><path d="M226.654,186.341v10.417a1.34,1.34,0,0,0,1.338,1.338H231.2a1.34,1.34,0,0,0,1.338-1.338V183.826a4.334,4.334,0,0,0-4.33-4.33,4.394,4.394,0,0,0-2.918,1.107l-1.183,1.049v-.818a1.34,1.34,0,0,0-1.338-1.338h-3.212a1.34,1.34,0,0,0-1.338,1.338v9.235a.574.574,0,1,0,1.147,0v-9.235a.191.191,0,0,1,.191-.191h3.212a.191.191,0,0,1,.191.191v1.113a1.014,1.014,0,0,0,1.687.759l1.4-1.245a3.248,3.248,0,0,1,2.157-.819,3.186,3.186,0,0,1,3.183,3.183v12.931a.191.191,0,0,1-.191.191h-3.212a.192.192,0,0,1-.191-.191V186.341a2.418,2.418,0,1,0-4.837,0v10.417a.191.191,0,0,1-.191.191h-3.212a.191.191,0,0,1-.191-.191v-4.048a.574.574,0,0,0-1.147,0v4.048a1.34,1.34,0,0,0,1.338,1.338h3.212a1.34,1.34,0,0,0,1.338-1.338V186.341a1.27,1.27,0,0,1,.446-.967,1.271,1.271,0,0,1,2.1.967Z" transform="translate(-209.682 -172.597)" fill="#fff"/><path d="M109.929,89.27a2.906,2.906,0,1,0,2.906,2.906A2.909,2.909,0,0,0,109.929,89.27Zm0,4.665a1.759,1.759,0,1,1,1.759-1.759A1.761,1.761,0,0,1,109.929,93.935Z" transform="translate(-106.985 -89.27)" fill="#fff"/></g></g></svg>