<svg xmlns="http://www.w3.org/2000/svg" width="68" height="68" viewBox="0 0 68 68"><g transform="translate(0.095 0.095)"><g transform="translate(-0.096 -0.095)" fill="#3694a7" stroke="#fff" stroke-width="1"><circle cx="34" cy="34" r="34" stroke="none"/><circle cx="34" cy="34" r="33.5" fill="none"/></g><g transform="translate(15.795 13.977)"><path d="M108.7,179.5a2.179,2.179,0,0,0-2.177,2.177v25.9a2.179,2.179,0,0,0,2.177,2.177h5.225a2.179,2.179,0,0,0,2.177-2.177v-25.9a2.18,2.18,0,0,0-2.177-2.177Zm5.536,2.177v25.9a.312.312,0,0,1-.311.311H108.7a.311.311,0,0,1-.311-.311v-25.9a.311.311,0,0,1,.311-.311h5.225A.311.311,0,0,1,114.236,181.677Z" transform="translate(-106.523 -168.276)" fill="#fff"/><path d="M231.938,190.631v16.946a2.179,2.179,0,0,0,2.177,2.177h5.225a2.179,2.179,0,0,0,2.177-2.177V186.54a7.051,7.051,0,0,0-7.044-7.043,7.148,7.148,0,0,0-4.747,1.8L227.8,183v-1.331a2.18,2.18,0,0,0-2.177-2.177H220.4a2.18,2.18,0,0,0-2.177,2.177V196.7a.933.933,0,1,0,1.866,0V181.673a.311.311,0,0,1,.311-.311h5.225a.311.311,0,0,1,.311.311v1.811a1.65,1.65,0,0,0,2.745,1.235l2.283-2.025a5.283,5.283,0,0,1,3.509-1.332,5.184,5.184,0,0,1,5.178,5.178v21.036a.311.311,0,0,1-.311.311h-5.225a.312.312,0,0,1-.311-.311V190.631a3.934,3.934,0,1,0-7.869,0v16.946a.311.311,0,0,1-.311.311H220.4a.311.311,0,0,1-.311-.311v-6.585a.933.933,0,0,0-1.866,0v6.585a2.179,2.179,0,0,0,2.177,2.177h5.225a2.18,2.18,0,0,0,2.177-2.177V190.631a2.066,2.066,0,0,1,.725-1.573,2.068,2.068,0,0,1,3.411,1.573Z" transform="translate(-204.328 -168.272)" fill="#fff"/><path d="M111.75,89.27A4.727,4.727,0,1,0,116.477,94,4.732,4.732,0,0,0,111.75,89.27Zm0,7.588A2.861,2.861,0,1,1,114.611,94,2.865,2.865,0,0,1,111.75,96.858Z" transform="translate(-106.961 -89.27)" fill="#fff"/></g></g></svg>