<svg xmlns="http://www.w3.org/2000/svg" width="39" height="39" viewBox="0 0 39 39"><g transform="translate(-553 -4444)"><circle cx="19.5" cy="19.5" r="19.5" transform="translate(553 4444)" fill="#ff605a"/><g transform="translate(-854.816 3465.22)"><path d="M107.769,179.5a1.247,1.247,0,0,0-1.246,1.246v14.826a1.247,1.247,0,0,0,1.246,1.246h2.99a1.247,1.247,0,0,0,1.246-1.246V180.746a1.247,1.247,0,0,0-1.246-1.246Zm3.168,1.246v14.826a.178.178,0,0,1-.178.178h-2.99a.178.178,0,0,1-.178-.178V180.746a.178.178,0,0,1,.178-.178h2.99A.178.178,0,0,1,110.937,180.746Z" transform="translate(1310.293 813.704)" fill="#fff"/><path d="M226.073,185.869v9.7a1.247,1.247,0,0,0,1.246,1.246h2.99a1.247,1.247,0,0,0,1.246-1.246v-12.04a4.036,4.036,0,0,0-4.031-4.031,4.091,4.091,0,0,0-2.717,1.031l-1.1.977v-.762a1.248,1.248,0,0,0-1.246-1.246h-2.99a1.247,1.247,0,0,0-1.246,1.246v8.6a.534.534,0,0,0,1.068,0v-8.6a.178.178,0,0,1,.178-.178h2.99a.178.178,0,0,1,.178.178v1.037a.945.945,0,0,0,1.571.707l1.307-1.159a3.024,3.024,0,0,1,2.009-.762,2.967,2.967,0,0,1,2.963,2.964v12.04a.178.178,0,0,1-.178.178h-2.99a.178.178,0,0,1-.178-.178v-9.7a2.252,2.252,0,1,0-4.5,0v9.7a.178.178,0,0,1-.178.178h-2.99a.178.178,0,0,1-.178-.178V191.8a.534.534,0,0,0-1.068,0v3.769a1.247,1.247,0,0,0,1.246,1.246h2.99a1.247,1.247,0,0,0,1.246-1.246v-9.7a1.182,1.182,0,0,1,.415-.9,1.184,1.184,0,0,1,1.952.9Z" transform="translate(1206.546 813.708)" fill="#fff"/><path d="M109.729,89.27a2.706,2.706,0,1,0,2.706,2.706A2.709,2.709,0,0,0,109.729,89.27Zm0,4.343a1.638,1.638,0,1,1,1.638-1.638A1.64,1.64,0,0,1,109.729,93.613Z" transform="translate(1309.828 897.51)" fill="#fff"/></g></g></svg>