<svg xmlns="http://www.w3.org/2000/svg" width="32" height="32" viewBox="0 0 32 32"><g transform="translate(0.069 0.12)"><circle cx="16" cy="16" r="16" transform="translate(-0.069 -0.12)" fill="#ff605a"/><g transform="translate(7.514 6.647)"><path d="M107.534,179.5a1.013,1.013,0,0,0-1.011,1.011v12.035a1.012,1.012,0,0,0,1.011,1.011h2.427a1.013,1.013,0,0,0,1.011-1.011V180.511a1.013,1.013,0,0,0-1.011-1.011Zm2.572,1.011v12.035a.145.145,0,0,1-.144.144h-2.427a.145.145,0,0,1-.145-.144V180.511a.145.145,0,0,1,.145-.144h2.427A.145.145,0,0,1,110.106,180.511Z" transform="translate(-106.523 -174.285)" fill="#fff"/><path d="M224.6,184.669v7.873a1.013,1.013,0,0,0,1.011,1.011h2.427a1.012,1.012,0,0,0,1.011-1.011v-9.774a3.276,3.276,0,0,0-3.272-3.272,3.321,3.321,0,0,0-2.205.837l-.894.793v-.619a1.013,1.013,0,0,0-1.011-1.011h-2.427a1.013,1.013,0,0,0-1.011,1.011v6.98a.433.433,0,1,0,.867,0v-6.98a.145.145,0,0,1,.144-.144h2.427a.145.145,0,0,1,.144.144v.841a.767.767,0,0,0,1.275.574l1.061-.941a2.455,2.455,0,0,1,1.63-.619,2.408,2.408,0,0,1,2.406,2.406v9.774a.145.145,0,0,1-.144.144h-2.427a.145.145,0,0,1-.145-.144v-7.873a1.828,1.828,0,1,0-3.656,0v7.873a.145.145,0,0,1-.144.144h-2.427a.145.145,0,0,1-.144-.144v-3.06a.433.433,0,0,0-.867,0v3.06a1.013,1.013,0,0,0,1.011,1.011h2.427a1.013,1.013,0,0,0,1.011-1.011v-7.873a.96.96,0,0,1,.337-.731.961.961,0,0,1,1.585.731Z" transform="translate(-211.767 -174.281)" fill="#fff"/><path d="M109.219,89.27a2.2,2.2,0,1,0,2.2,2.2A2.2,2.2,0,0,0,109.219,89.27Zm0,3.526a1.329,1.329,0,1,1,1.329-1.329A1.331,1.331,0,0,1,109.219,92.8Z" transform="translate(-106.994 -89.27)" fill="#fff"/></g></g></svg>