<svg id="logo-gato-da-sorte" xmlns="http://www.w3.org/2000/svg" viewBox="0 0 365.96 76.58"><g id="Grupo_3" data-name="Grupo 3"><path id="Caminho_44" data-name="Caminho 44" d="M104.29,23.41c-2.7,0-3-1.75-2.63-2.4,4.26-9.1,2.74-14.36-.88-14.36-6.33,0-13.59,8.64-13.59,28.65,0,11.55,3.51,16.22,6.11,16.22s7-7.65,10.4-21c3.78-1.39,7.13-1.6,6.69,2.26L108.83,47c-2.78,25.07-11.55,29.6-14.9,29.6A22.82,22.82,0,0,1,78.73,70c.71-2,2.33-4.14,3.7-4.14,2.77,0,6.69,7.79,11.78,7.79,4,0,7-8.37,8.06-21.91l.81-8.22c-4.8,10.52-9.82,13.1-14,13.1-3.21,0-9.52-4.88-9.52-18.19,0-15,8.94-35.33,22.8-35.33C115.81,3,109.69,23.41,104.29,23.41Z"/><path id="Caminho_45" data-name="Caminho 45" d="M139.15,47c1.09-.79,2.91-.28,2.54,1-1.29,4.51-5.08,8.44-9.38,8.51-1.75,0-4.21-.74-5.26-4.67-2.19,3.72-4.22,4.6-6.54,4.6-5.26,0-7.42-5.26-7.42-11.72,0-8.43,4.58-18.62,13.82-18.62,3.12,0,7,2,6.1,6.7.72.44,1.23,1.75.44,4.58-2.54,8.76-2.91,15.57.37,15.57C135.38,52.87,137.12,51.83,139.15,47ZM125.7,29.44c-4,0-6.19,9.75-6.19,16.66,0,3.86.81,6.77,2.33,6.77,2.11,0,4.51-3.63,5.46-15.2a1.6,1.6,0,0,1-1.42-1.76V35.7c1.75-1.75,2.7-6.26-.21-6.26Z"/><path id="Caminho_46" data-name="Caminho 46" d="M141.12,22.43l-3.93.28c-2.11.23-2-2.32-1.3-3.7h5.73l1.62-10.26c3.12-2,8-3,7,.51-.65,3.28-1.31,6.47-1.89,9.68h4.87c3.12,0,3.35.93,2.33,2.89l-7.78.3c-3.19,18-4.74,32.58-.95,32.58,4.3,0,7.14-6.26,8.44-9.89,1.17-.72,2.91-.44,2.7.88-.6,4.14-6.12,11.92-11.72,11.92C137.49,57.5,137.7,45.66,141.12,22.43Z"/><path id="Caminho_47" data-name="Caminho 47" d="M183.2,28.72a13.05,13.05,0,0,1-8.94,12.07c-1.76,10.52-8.3,15.57-12,15.57-2.55,0-8.21-1.46-8.21-12,0-12.94,6.61-18,9.59-17.54a5.64,5.64,0,0,1,3.63-1.59c4,0,7.42,3.12,7.42,10.11v2.32c3.07-.95,5.75-4,6.7-10C182.5,27.34,183.2,27.85,183.2,28.72ZM169.17,41c-4.07-.67-7.77-3.51-7.92-7C158.42,43.36,161.25,53,164,53s4.59-6.05,5.24-11.94Zm.3-3.93V35.54c0-6.4-3.12-8.22-3.63-6.55A7.56,7.56,0,0,0,169.47,37.07Z"/><path id="Caminho_48" data-name="Caminho 48" d="M216.39,7a113.78,113.78,0,0,1-5.13,34.27c0,8,.36,11.62,1.52,11.62,1.53,0,3.28-1,5.26-6,1.09-.79,2.91-.28,2.55,1-1.32,4.52-5.09,8.45-9.39,8.45-2.17,0-3.5-2.19-4.13-6-2.41,3.79-5.27,6-8.37,6-4.22,0-7.14-6.12-7.14-13.4,0-8.28,4.16-17.22,9.89-17.22a9.71,9.71,0,0,1,5.9,1.76c.5-6.41,1.31-13.82,2.19-21.68C215.15,1.74,216.39,3.14,216.39,7Zm-9.17,23.36a8.92,8.92,0,0,0-3.5-.65c-5.69,0-7.21,22.9-3.12,22.9,2.82,0,4.78-5.38,6.1-13.82C206.78,36.21,207,33.37,207.22,30.32Z"/><path id="Caminho_49" data-name="Caminho 49" d="M243.38,47c1.09-.79,2.89-.28,2.54,1-1.31,4.51-5.08,8.44-9.38,8.51-1.75,0-4.22-.74-5.26-4.67-2.17,3.72-4.21,4.6-6.54,4.6-5.26,0-7.42-5.26-7.42-11.72,0-8.43,4.58-18.62,13.82-18.62,3.12,0,7,2,6.1,6.7.74.44,1.23,1.75.44,4.58-2.54,8.76-2.91,15.57.37,15.57C239.59,52.87,241.33,51.83,243.38,47ZM229.91,29.44c-4,0-6.17,9.75-6.17,16.66,0,3.86.79,6.77,2.32,6.77,2.1,0,4.52-3.63,5.47-15.2A1.59,1.59,0,0,1,230.1,36v0a.74.74,0,0,1,0-.21C231.88,34,232.82,29.44,229.91,29.44Zm4.51-18.83c1.75-1.89,4.59,0,4.52,2.68-3.85,3.14-7.78,6.12-11.71,9.17a1.5,1.5,0,0,1-2.13,0l0,0a1.42,1.42,0,0,1-.45-1.26c3.19-3.35,6.82-7.14,9.8-10.63Z"/><path id="Caminho_50" data-name="Caminho 50" d="M261.41,46.24c1.08,0,2.61.44,2.17,1.75-2,6-1.87,11.49,3.35,11.49,1.89,0,6.19-2,6.26-7.77,0-11.34-14.47-11.64-14.47-28.51,0-14,9.16-23.2,16.94-23.2,13.61,0,9.75,21.17,2.41,21.17-1.09,0-2.62-.44-2.34-1.76.81-2.1,5.76-16-1.75-16-4.23,0-7.79,8.77-7.79,18,0,13.44,13,15.27,13,27.77,0,8.23-7.86,12.66-13.38,12.66C253.34,61.81,254.71,46.24,261.41,46.24Z"/><path id="Caminho_51" data-name="Caminho 51" d="M290.94,28.13a5.78,5.78,0,0,1,4.64-2.9c4,0,7.42,3.12,7.42,10.1a26.31,26.31,0,0,1-4.51,15.79,3.54,3.54,0,0,0,3,1.59c5,0,6.12-10.1,6.54-16.94-2-.8-3.2-2.47-3.2-6,0-2.91,2-8.77,6.48-6.7a35.53,35.53,0,0,1,.87,8.16c3.42,0,7.35-.51,8.87-1.55,1.09.09,2.11.44,1.53,2.4-4.3,14.91-2.75,20.87-.58,20.87,1.53,0,3.28-1,5.26-6,1.09-.79,2.91-.28,2.54,1-1.31,4.52-5.08,8.45-9.38,8.45-3.42,0-8.29-4-5.45-20.15-1.09,0-2.1.14-3,.14-1.11,10.19-5.26,20.22-11.78,20.22a5.67,5.67,0,0,1-4.74-2.33,8.51,8.51,0,0,1-4.87,2.1c-2.55,0-8.23-1.45-8.23-12C282.36,32.05,288,27.85,290.94,28.13ZM296.2,48.2A42.37,42.37,0,0,0,297.65,39c-2,1.25-7.57.37-8.06-4.43-3,9.47-.16,18.62,2.75,18.62a2.62,2.62,0,0,0,2.1-1.23v-.73A2.76,2.76,0,0,1,296.2,48.2Zm1.59-11V35.63c0-6.4-3.12-8.22-3.63-6.54A6.76,6.76,0,0,0,297.79,37.16Z"/><path id="Caminho_52" data-name="Caminho 52" d="M329.27,22.43l-3.93.28c-2.1.23-2-2.32-1.31-3.7h5.75l1.59-10.26c3.12-2,8-3,7,.51-.65,3.28-1.32,6.47-1.9,9.68h4.88c3.12,0,3.35.93,2.33,2.89l-7.79.3c-3.19,18-4.73,32.58-.94,32.58,4.29,0,7.13-6.26,8.43-9.89,1.18-.72,2.91-.44,2.7.88-.58,4.14-6.12,11.92-11.71,11.92C325.62,57.5,325.85,45.66,329.27,22.43Z"/><path id="Caminho_53" data-name="Caminho 53" d="M349.56,50.31c.94,3.35,2.91,5,5.26,5,3.35,0,6.56-4.29,8.43-9.89,1.76-1,2.84,0,2.7.88-.87,4.86-6.47,12-12.59,12-5.66,0-10.75-4.5-10.75-13.61,0-16.57,8-20.06,11.49-20.06,4.29,0,6,3,6,6.69C360.1,39.19,354.85,46,349.56,50.31ZM349,47a25.38,25.38,0,0,0,5.82-16.43c0-1.62-.35-2.34-1.15-2.34-1.32,0-4.74,4.88-4.74,16.8a16.19,16.19,0,0,0,0,2Z"/></g><path d="M86.47,70.84c-2.93-11.39-12.83-7.74-18.35-.93C62.71,76.56,56.77,77,52.75,76.2a18.63,18.63,0,0,1-6.87-3A36.91,36.91,0,0,1,.08,35C1.94,6.31,35.61-10.14,59.4,8.21c2.05,1.12,15.95,12.87,14.26,32.44a1.3,1.3,0,0,1-2.6-.22,34.08,34.08,0,0,0-.19-7.68,36.17,36.17,0,0,1-3.06,9.87,38,38,0,0,1,.56,8.48A33.72,33.72,0,0,0,70,46.29a1.3,1.3,0,0,1,2.52.67A36.92,36.92,0,0,1,49.24,72.22c5.92,3,11.9,2.13,16.85-4C73.67,58.94,85.68,57.32,89,70.19a1.31,1.31,0,0,1-2.53.65ZM21.26,68a40.32,40.32,0,0,1-5.65-6,38.2,38.2,0,0,1-5.48-3.09A34.47,34.47,0,0,0,21.26,68ZM5.76,51.78a36.68,36.68,0,0,0,6.79,5.53,40.08,40.08,0,0,1-2.44-5.13,37.25,37.25,0,0,1-5.67-3.69A31.35,31.35,0,0,0,5.76,51.78ZM3.24,44a35.28,35.28,0,0,0,5.61,4.45,41.56,41.56,0,0,1-.93-4.12,38.55,38.55,0,0,1-5-2.49C3,42.62,3.11,43.31,3.24,44Zm-.61-5.4A36.48,36.48,0,0,0,7.52,41.3c-.12-1.25-.19-2.5-.19-3.86s.07-2.66.2-4a35.16,35.16,0,0,0-4.88,2.42C2.6,37,2.61,37.8,2.63,38.58Zm.31-5.88a36.22,36.22,0,0,1,5-2.2,39.58,39.58,0,0,1,1.42-5.7,35.1,35.1,0,0,0-5.35,3A34.81,34.81,0,0,0,2.94,32.7ZM7.65,19.57a34,34,0,0,0-2.23,4.28,36.89,36.89,0,0,1,5.19-2.39,39.19,39.19,0,0,1,2.77-5.29A35.29,35.29,0,0,0,7.65,19.57ZM11.92,14a37.9,37.9,0,0,1,4.23-1.73,41.49,41.49,0,0,1,5.11-5.32A34.36,34.36,0,0,0,11.92,14ZM56.67,9.44a27.79,27.79,0,0,0-13.5,3.94,37.29,37.29,0,0,1,12.37,7.3A35.09,35.09,0,0,0,57.46,10C57.2,9.82,56.94,9.62,56.67,9.44ZM63,15.18a33.56,33.56,0,0,0-3-3.09A37.46,37.46,0,0,1,57.6,22.65,39.15,39.15,0,0,1,61.9,28,35.29,35.29,0,0,0,63,15.18Zm5.8,9.58a33.7,33.7,0,0,0-3-5.85,37.69,37.69,0,0,1-2,12,38.66,38.66,0,0,1,3.07,7.35A36.62,36.62,0,0,0,68.76,24.76ZM62.47,60.29A35.72,35.72,0,0,0,65,57.17,35.61,35.61,0,0,0,40.44,15.23,29,29,0,0,0,35,20.72,38.12,38.12,0,0,1,62.47,60.29Zm-3,2.94A35.47,35.47,0,0,0,33.49,23a27.77,27.77,0,0,0-2.81,6.25A38.08,38.08,0,0,1,56.73,65.41,34.65,34.65,0,0,0,59.5,63.23ZM48.92,47a36.24,36.24,0,0,0-5.19-6.63,37.93,37.93,0,0,1-12.91,5.73,28.07,28.07,0,0,0,3.62,7.27A35.32,35.32,0,0,0,48.92,47ZM36.21,55.63a28.28,28.28,0,0,0,6.69,5.71A36.41,36.41,0,0,0,53,56.46a36.39,36.39,0,0,0-2.75-7.2A37.91,37.91,0,0,1,36.21,55.63Zm5.57-17.12A34.79,34.79,0,0,0,30,31.79a27.8,27.8,0,0,0,.1,11.77A34.66,34.66,0,0,0,41.78,38.51ZM54.12,65.26a35.75,35.75,0,0,0-.56-6.06A38.9,38.9,0,0,1,46.06,63,27.69,27.69,0,0,0,54.12,65.26Zm-1.18,2.48A29.94,29.94,0,0,1,34.12,57.27C18.26,38.34,29.82,10.55,53,7.15a33.7,33.7,0,0,0-6.84-2.74,33.71,33.71,0,0,0-26.37,29,1.3,1.3,0,1,1-2.59-.3A36.45,36.45,0,0,1,40.51,3.34a34.75,34.75,0,0,0-9.82.37C3.47,17.48,2.68,57,30.7,71.17a34.32,34.32,0,0,0,9.81.37A36.41,36.41,0,0,1,17,39.42a1.29,1.29,0,0,1,1.23-1.37h.07a1.3,1.3,0,0,1,1.3,1.24A33.78,33.78,0,0,0,46.11,70.47,33.7,33.7,0,0,0,52.94,67.74Z"/></svg>