<svg xmlns="http://www.w3.org/2000/svg" width="476.553" height="142.84" viewBox="0 0 476.553 142.84"><g transform="translate(-356.634 -96.269)"><g transform="translate(423.14 205.421)"><g transform="translate(1.129 7.082)"><path d="M494.822,343.819c0-6.4,2.516-8.818,9.072-8.818a16.452,16.452,0,0,1,5.768.94l-.2,2.237a15.851,15.851,0,0,0-5.565-.966c-5.006,0-6.658,1.677-6.658,6.607s1.652,6.607,6.658,6.607a15.753,15.753,0,0,0,5.565-.965l.2,2.236a16.545,16.545,0,0,1-5.768.94C497.363,352.637,494.822,350.223,494.822,343.819Z" transform="translate(-494.822 -334.392)" fill="#fff"/><path d="M531.111,333.756H533.4V351.7h-2.287Z" transform="translate(-513.35 -333.756)" fill="#fff"/><path d="M545,333.859h2.8l-3.735,4.04h-2.312Zm-2.312,5.718h2.287v12.172h-2.287Z" transform="translate(-518.783 -333.809)" fill="#fff"/><path d="M556.236,345.223h1.728l.254,1.27a9.4,9.4,0,0,1,5.158-1.576c3.125,0,4.549,1.4,4.549,4.473v8h-2.287v-7.471c0-2.059-.839-2.872-2.872-2.872a7.363,7.363,0,0,0-4.243,1.424V357.4h-2.287Z" transform="translate(-526.178 -339.455)" fill="#fff"/><path d="M587.176,335.625h2.542v2.541h-2.542Zm.127,4.854h2.287v12.172H587.3Z" transform="translate(-541.975 -334.71)" fill="#fff"/><path d="M598.6,351.322c0-4.574,1.855-6.4,6.455-6.4a13.254,13.254,0,0,1,4.167.635l-.2,2.059a10.965,10.965,0,0,0-3.735-.61c-3.278,0-4.371,1.092-4.371,4.295s1.093,4.319,4.371,4.319a10.978,10.978,0,0,0,3.735-.609l.2,2.059a13.269,13.269,0,0,1-4.167.635C600.452,357.7,598.6,355.9,598.6,351.322Z" transform="translate(-547.806 -339.455)" fill="#fff"/><path d="M623.826,353.838c0-2.77,1.5-3.787,5.464-3.787a40.305,40.305,0,0,1,4.37.28v-.305c0-2.338-.915-3.049-3.989-3.049a12.219,12.219,0,0,0-4.523.762l-.2-2.134a16.293,16.293,0,0,1,4.93-.686c4.6,0,6.073,1.194,6.073,4.956V357.4H634.22l-.305-1.4a10.011,10.011,0,0,1-5.59,1.7C625.2,357.7,623.826,356.48,623.826,353.838Zm9.834.2v-1.754a38.923,38.923,0,0,0-4.345-.279c-2.44,0-3.177.533-3.177,1.753,0,1.321.864,1.88,2.745,1.88A8.273,8.273,0,0,0,633.66,354.041Z" transform="translate(-560.687 -339.455)" fill="#fff"/><path d="M667.589,335.625h14.739v2.16h-12.35v5.133H680.6v2.16H669.978v5.413h12.553v2.16H667.589Z" transform="translate(-583.031 -334.71)" fill="#fff"/><path d="M702.578,356.913l.2-2.16a15.682,15.682,0,0,0,5.565.889c2.669,0,3.507-.355,3.507-1.677,0-1.042-.534-1.372-2.922-1.6l-1.754-.178c-3.354-.331-4.447-1.143-4.447-3.507,0-2.8,1.55-3.761,5.921-3.761a15.95,15.95,0,0,1,4.828.635l-.2,2.134a15.779,15.779,0,0,0-4.9-.711c-2.567,0-3.4.356-3.4,1.6,0,.991.558,1.245,2.972,1.5l1.754.178c3.253.331,4.4,1.144,4.4,3.634,0,2.821-1.474,3.812-5.921,3.812A17.25,17.25,0,0,1,702.578,356.913Z" transform="translate(-600.895 -339.455)" fill="#fff"/><path d="M731.91,345.223h1.728l.229,1.143a9.861,9.861,0,0,1,5.209-1.449c3.888,0,5.464,1.829,5.464,6.379,0,4.574-1.576,6.4-5.464,6.4a9.654,9.654,0,0,1-4.879-1.271V362.6H731.91Zm10.317,6.1c0-3.2-.94-4.345-3.609-4.345A7.655,7.655,0,0,0,734.2,348.4v5.819a7.651,7.651,0,0,0,4.422,1.423C741.287,355.642,742.227,354.5,742.227,351.322Z" transform="translate(-615.87 -339.455)" fill="#fff"/><path d="M762.8,351.347c0-4.65,1.8-6.429,6.531-6.429,4.523,0,6.3,1.626,6.3,5.667,0,.483-.026,1.118-.077,1.6H765.136c.2,2.693,1.423,3.455,4.854,3.455a11.875,11.875,0,0,0,4.727-.838l.2,2.109a14.086,14.086,0,0,1-4.956.788C764.73,357.7,762.8,356.125,762.8,351.347Zm10.572-1.118c-.178-2.491-1.195-3.253-4.015-3.253-2.872,0-3.99.813-4.193,3.253Z" transform="translate(-631.641 -339.455)" fill="#fff"/><path d="M794.05,351.322c0-4.574,1.855-6.4,6.455-6.4a13.252,13.252,0,0,1,4.167.635l-.2,2.059a10.965,10.965,0,0,0-3.735-.61c-3.278,0-4.371,1.092-4.371,4.295s1.093,4.319,4.371,4.319a10.978,10.978,0,0,0,3.735-.609l.2,2.059a13.266,13.266,0,0,1-4.167.635C795.9,357.7,794.05,355.9,794.05,351.322Z" transform="translate(-647.597 -339.455)" fill="#fff"/><path d="M820.89,335.625h2.541v2.541H820.89Zm.127,4.854H823.3v12.172h-2.287Z" transform="translate(-661.3 -334.71)" fill="#fff"/><path d="M831.687,353.838c0-2.77,1.5-3.787,5.464-3.787a40.322,40.322,0,0,1,4.37.28v-.305c0-2.338-.915-3.049-3.989-3.049a12.223,12.223,0,0,0-4.523.762l-.2-2.134a16.293,16.293,0,0,1,4.93-.686c4.6,0,6.073,1.194,6.073,4.956V357.4h-1.728l-.305-1.4a10.012,10.012,0,0,1-5.59,1.7C833.059,357.7,831.687,356.48,831.687,353.838Zm9.834.2v-1.754a38.923,38.923,0,0,0-4.345-.279c-2.439,0-3.176.533-3.176,1.753,0,1.321.864,1.88,2.745,1.88A8.273,8.273,0,0,0,841.521,354.041Z" transform="translate(-666.813 -339.455)" fill="#fff"/><path d="M863.77,333.756h2.287V351.7H863.77Z" transform="translate(-683.194 -333.756)" fill="#fff"/><path d="M876.074,335.625h2.541v2.541h-2.541Zm.127,4.854h2.287v12.172H876.2Z" transform="translate(-689.475 -334.71)" fill="#fff"/><path d="M887.026,356.913l.2-2.16a15.687,15.687,0,0,0,5.565.889c2.668,0,3.507-.355,3.507-1.677,0-1.042-.534-1.372-2.922-1.6l-1.754-.178c-3.354-.331-4.447-1.143-4.447-3.507,0-2.8,1.55-3.761,5.921-3.761a15.95,15.95,0,0,1,4.828.635l-.2,2.134a15.775,15.775,0,0,0-4.9-.711c-2.567,0-3.405.356-3.405,1.6,0,.991.559,1.245,2.973,1.5l1.754.178c3.253.331,4.4,1.144,4.4,3.634,0,2.821-1.474,3.812-5.921,3.812A17.247,17.247,0,0,1,887.026,356.913Z" transform="translate(-695.067 -339.455)" fill="#fff"/><path d="M915.185,350.245v-6.4h-2.668V341.91h2.718l.2-3.481h2.033v3.481h3.863v1.931h-3.863v6.2c0,1.652.407,2.033,1.957,2.033h1.906v2.008h-2.389C916.227,354.082,915.185,353.092,915.185,350.245Z" transform="translate(-708.082 -336.142)" fill="#fff"/><path d="M933.905,353.838c0-2.77,1.5-3.787,5.463-3.787a40.315,40.315,0,0,1,4.37.28v-.305c0-2.338-.915-3.049-3.989-3.049a12.219,12.219,0,0,0-4.523.762l-.2-2.134a16.293,16.293,0,0,1,4.93-.686c4.6,0,6.073,1.194,6.073,4.956V357.4H944.3l-.305-1.4a10.012,10.012,0,0,1-5.59,1.7C935.277,357.7,933.905,356.48,933.905,353.838Zm9.834.2v-1.754a38.924,38.924,0,0,0-4.345-.279c-2.44,0-3.177.533-3.177,1.753,0,1.321.864,1.88,2.745,1.88A8.272,8.272,0,0,0,943.739,354.041Z" transform="translate(-719.002 -339.455)" fill="#fff"/><path d="M975.8,351.347c0-4.65,1.8-6.429,6.531-6.429,4.523,0,6.3,1.626,6.3,5.667,0,.483-.026,1.118-.077,1.6H978.136c.2,2.693,1.423,3.455,4.854,3.455a11.875,11.875,0,0,0,4.727-.838l.2,2.109a14.086,14.086,0,0,1-4.956.788C977.73,357.7,975.8,356.125,975.8,351.347Zm10.572-1.118c-.178-2.491-1.194-3.253-4.015-3.253-2.872,0-3.99.813-4.193,3.253Z" transform="translate(-740.391 -339.455)" fill="#fff"/><path d="M1008.245,345.223h1.728l.254,1.194a8.173,8.173,0,0,1,4.65-1.5c1.753,0,2.922.508,3.532,1.652a8.524,8.524,0,0,1,4.9-1.652c2.846,0,4.091,1.347,4.091,4.473v8h-2.287v-7.471c0-2.084-.737-2.872-2.465-2.872a6.411,6.411,0,0,0-3.735,1.372c.025.305.051.635.051.966v8h-2.287v-7.471c0-2.084-.738-2.872-2.465-2.872a6.228,6.228,0,0,0-3.684,1.347v9h-2.287Z" transform="translate(-756.957 -339.455)" fill="#fff"/><path d="M1064.518,343.819c0-6.454,2.541-8.818,9.479-8.818a20.553,20.553,0,0,1,6.15.864l-.2,2.186a18.95,18.95,0,0,0-5.947-.89c-5.362,0-7.064,1.6-7.064,6.632,0,5.006,1.677,6.683,6.835,6.683a14.109,14.109,0,0,0,4.422-.61v-4.879h-4.574v-2.16h6.962V351.6a19.571,19.571,0,0,1-6.606,1.042C1067.034,352.637,1064.518,350.248,1064.518,343.819Z" transform="translate(-785.688 -334.392)" fill="#fff"/><path d="M1102.519,353.838c0-2.77,1.5-3.787,5.464-3.787a40.322,40.322,0,0,1,4.371.28v-.305c0-2.338-.915-3.049-3.99-3.049a12.221,12.221,0,0,0-4.523.762l-.2-2.134a16.291,16.291,0,0,1,4.93-.686c4.6,0,6.073,1.194,6.073,4.956V357.4h-1.728l-.306-1.4a10.013,10.013,0,0,1-5.591,1.7C1103.891,357.7,1102.519,356.48,1102.519,353.838Zm9.834.2v-1.754a38.932,38.932,0,0,0-4.345-.279c-2.44,0-3.176.533-3.176,1.753,0,1.321.864,1.88,2.744,1.88A8.275,8.275,0,0,0,1112.353,354.041Z" transform="translate(-805.09 -339.455)" fill="#fff"/><path d="M1133.688,350.245v-6.4h-2.668V341.91h2.718l.2-3.481h2.033v3.481h3.863v1.931h-3.863v6.2c0,1.652.406,2.033,1.957,2.033h1.906v2.008h-2.389C1134.73,354.082,1133.688,353.092,1133.688,350.245Z" transform="translate(-819.642 -336.142)" fill="#fff"/><path d="M1152.77,351.322c0-4.65,1.8-6.4,6.683-6.4s6.684,1.754,6.684,6.4c0,4.625-1.8,6.378-6.684,6.378S1152.77,355.947,1152.77,351.322Zm11.054,0c0-3.278-1.093-4.345-4.371-4.345s-4.371,1.067-4.371,4.345c0,3.253,1.093,4.32,4.371,4.32S1163.824,354.575,1163.824,351.322Z" transform="translate(-830.746 -339.455)" fill="#fff"/><path d="M1184.853,356.913l.2-2.16a15.687,15.687,0,0,0,5.565.889c2.668,0,3.507-.355,3.507-1.677,0-1.042-.533-1.372-2.922-1.6l-1.754-.178c-3.354-.331-4.447-1.143-4.447-3.507,0-2.8,1.55-3.761,5.921-3.761a15.951,15.951,0,0,1,4.828.635l-.2,2.134a15.78,15.78,0,0,0-4.9-.711c-2.567,0-3.405.356-3.405,1.6,0,.991.559,1.245,2.973,1.5l1.754.178c3.253.331,4.4,1.144,4.4,3.634,0,2.821-1.474,3.812-5.921,3.812A17.248,17.248,0,0,1,1184.853,356.913Z" transform="translate(-847.127 -339.455)" fill="#fff"/></g><rect width="351.163" height="1.947" fill="#fff"/><rect width="351.163" height="1.947" transform="translate(0 31.741)" fill="#fff"/></g><g transform="translate(356.634 96.269)"><path d="M398.989,140.285c-4.465,0-4.948-2.775-4.344-3.982,7.119-15.2,4.585-23.772-1.449-23.772-10.5,0-22.565,14.36-22.565,47.544,0,19.187,5.913,26.91,10.137,26.91s11.7-12.671,17.256-34.874c6.275-2.293,11.826-2.655,11.1,3.741l-2.534,23.53c-4.706,41.631-19.065,49.113-24.738,49.113-10.136,0-20.875-6.034-25.22-10.981,1.206-3.379,3.861-6.879,6.154-6.879,4.585,0,11.1,12.912,19.549,12.912,6.636,0,11.584-13.877,13.394-36.322l1.328-13.756c-7.964,17.376-16.29,21.72-23.289,21.72-5.309,0-15.808-8.085-15.808-30.167,0-24.858,14.843-58.646,37.77-58.646C418.176,106.377,408.039,140.285,398.989,140.285Z" transform="translate(-356.634 -101.43)" fill="#fff"/><path d="M516.454,219.166c1.81-1.327,4.827-.483,4.224,1.689-2.173,7.482-8.447,14-15.567,14.119-3.016,0-7-1.206-8.688-7.723-3.62,6.154-7,7.6-10.86,7.6-8.689,0-12.309-8.808-12.309-19.428,0-14,7.6-30.891,22.928-30.891,5.189,0,11.7,3.379,10.136,11.1,1.206.724,2.051,2.9.724,7.6-4.224,14.6-4.827,25.824.6,25.824C510.179,229.06,513.076,227.371,516.454,219.166Zm-22.324-28.84c-6.637,0-10.257,16.17-10.257,27.633,0,6.4,1.327,11.222,3.861,11.222,3.5,0,7.482-6.033,9.051-25.22-1.81-.483-2.413-1.327-2.293-3.258C497.388,197.686,498.957,190.325,494.13,190.325Z" transform="translate(-416.176 -141.333)" fill="#fff"/><path d="M558.314,145.388l-6.517.483c-3.5.362-3.379-3.862-2.172-6.154h9.533l2.655-17.015c5.189-3.379,13.273-4.947,11.7.845-1.086,5.43-2.172,10.74-3.137,16.049l8.085-.12c5.189,0,5.551,1.569,3.862,4.827l-12.912.483c-5.31,29.926-7.844,54.06-1.569,54.06,7.119,0,11.825-10.377,14-16.411,1.93-1.206,4.827-.724,4.465,1.448-.965,6.878-10.136,19.79-19.427,19.79C552.28,203.672,552.642,184,558.314,145.388Z" transform="translate(-454.777 -108.222)" fill="#fff"/><path d="M660.45,187.613c0,7.24-5.069,17.256-14.843,20.031-2.9,17.377-13.756,25.824-19.91,25.824-4.223,0-13.636-2.413-13.636-19.911,0-21.479,10.981-29.926,15.928-29.081a9.338,9.338,0,0,1,6.033-2.655c6.637,0,12.309,5.188,12.309,16.773,0,1.327-.12,2.655-.12,3.862,5.068-1.569,9.533-6.637,11.1-16.532C659.243,185.32,660.45,186.165,660.45,187.613Zm-23.169,20.514c-6.758-1.086-12.912-5.672-13.153-11.584-4.706,15.567-.121,31.616,4.585,31.616C633.661,228.158,636.2,217.9,637.281,208.127Zm.483-6.516v-2.534c0-10.619-5.189-13.636-6.034-10.861C630.282,192.682,633.057,198.836,637.764,201.611Z" transform="translate(-487.046 -139.949)" fill="#fff"/><path d="M780.555,113.654c0,19.549-3.017,40.787-8.447,56.836-.121,13.274.6,19.307,2.534,19.307,2.534,0,5.43-1.69,8.809-9.895,1.81-1.327,4.827-.483,4.223,1.689-2.172,7.482-8.447,14-15.566,14-3.62,0-5.792-3.62-6.879-10.016-3.982,6.275-8.688,9.9-13.877,10.016-7,0-11.826-10.136-11.826-22.2,0-13.756,6.879-28.6,16.411-28.6a16.222,16.222,0,0,1,9.774,2.9c.845-10.619,2.172-22.927,3.62-35.96C778.5,104.966,780.555,107.259,780.555,113.654Zm-15.2,38.735a15.906,15.906,0,0,0-5.792-1.087c-9.412,0-11.947,38.012-5.189,38.012,4.707,0,7.964-8.93,10.137-22.928C764.626,162.164,764.988,157.458,765.351,152.39Z" transform="translate(-552.125 -102.071)" fill="#fff"/><path d="M869.761,191.26c1.81-1.327,4.826-.483,4.223,1.689-2.173,7.482-8.447,14-15.567,14.119-3.016,0-7-1.206-8.688-7.723-3.62,6.154-7,7.6-10.86,7.6-8.689,0-12.309-8.808-12.309-19.428,0-14,7.6-30.891,22.928-30.891,5.189,0,11.705,3.379,10.136,11.1,1.206.724,2.051,2.9.724,7.6-4.224,14.6-4.827,25.824.6,25.824C863.486,201.155,866.382,199.466,869.761,191.26Zm-22.324-28.84c-6.637,0-10.257,16.17-10.257,27.633,0,6.4,1.327,11.222,3.861,11.222,3.5,0,7.482-6.033,9.051-25.22-1.81-.483-2.413-1.327-2.293-3.258C850.7,169.781,852.264,162.42,847.437,162.42Zm7.481-31.254c2.9-3.137,7.6-.12,7.482,4.465-6.4,5.189-12.912,10.137-19.428,15.2-2.292,1.81-4.585,0-4.344-2.052C843.938,143.233,849.972,136.959,854.918,131.166Z" transform="translate(-596.562 -113.428)" fill="#fff"/><path d="M967.235,173.015c1.81,0,4.344.724,3.62,2.9-3.258,9.895-3.137,19.066,5.551,19.066,3.137,0,10.257-3.379,10.378-12.912,0-18.825-24.013-19.307-24.013-47.3,0-23.168,15.2-38.493,28.116-38.493,22.565,0,16.169,35.115,3.982,35.115-1.81,0-4.344-.724-3.861-2.9,1.327-3.5,9.533-26.548-2.776-26.548-7,0-12.912,14.48-12.912,29.806,0,22.324,21.6,25.341,21.6,46.1,0,13.636-13.033,21-22.2,21C953.719,198.838,956.133,173.015,967.235,173.015Z" transform="translate(-664.11 -96.269)" fill="#fff"/><path d="M1061.217,181.973a9.694,9.694,0,0,1,7.723-4.827c6.637,0,12.309,5.189,12.309,16.773s-3.258,20.273-7.481,26.065a5.918,5.918,0,0,0,4.947,2.655c8.326,0,10.137-16.773,10.86-28.117-3.378-1.327-5.309-4.1-5.309-10.016,0-4.827,3.378-14.6,10.74-11.1a58.778,58.778,0,0,1,1.447,13.515c5.672.121,12.189-.844,14.722-2.534,1.81.12,3.5.724,2.534,3.982-7.12,24.738-4.586,34.633-.966,34.633,2.534,0,5.431-1.69,8.809-9.895,1.811-1.327,4.827-.483,4.224,1.689-2.173,7.482-8.447,14-15.567,14-5.672,0-13.757-6.637-9.051-33.426-1.81.121-3.5.241-5.068.241-1.81,16.894-8.688,33.546-19.549,33.546a9.435,9.435,0,0,1-7.844-3.861c-2.9,2.292-5.792,3.5-8.084,3.5-4.223,0-13.636-2.413-13.636-19.911C1046.978,188.489,1056.27,181.49,1061.217,181.973Zm8.809,33.3a67.859,67.859,0,0,0,2.413-15.325c-3.258,2.051-12.549.6-13.394-7.361-4.948,15.687-.241,30.892,4.585,30.892a4.361,4.361,0,0,0,3.5-2.052v-1.206C1067.13,218.054,1067.733,216,1070.026,215.278Zm2.655-18.342V194.4c0-10.619-5.189-13.636-6.033-10.861C1065.44,187.282,1066.164,193.437,1072.681,196.936Z" transform="translate(-709.099 -135.274)" fill="#fff"/><path d="M1196.142,145.388l-6.516.483c-3.5.362-3.378-3.862-2.172-6.154h9.533l2.655-17.015c5.189-3.379,13.273-4.947,11.7.845-1.086,5.43-2.172,10.74-3.137,16.049l8.085-.12c5.188,0,5.551,1.569,3.862,4.827l-12.912.483c-5.31,29.926-7.844,54.06-1.569,54.06,7.119,0,11.825-10.377,14-16.411,1.93-1.206,4.827-.724,4.465,1.448-.965,6.878-10.136,19.79-19.427,19.79C1190.109,203.672,1190.471,184,1196.142,145.388Z" transform="translate(-780.429 -108.222)" fill="#fff"/><path d="M1262.708,222.445c1.569,5.551,4.827,8.327,8.688,8.327,5.551,0,10.861-7.119,14-16.412,3.017-1.689,4.706.121,4.465,1.448-1.448,8.085-10.74,19.911-20.876,19.911-9.412,0-17.859-7.482-17.859-22.565,0-27.513,13.273-33.3,19.066-33.3,7.119,0,10.015,4.947,10.015,11.1C1280.2,203.983,1271.517,215.326,1262.708,222.445Zm-.965-5.43a42.31,42.31,0,0,0,9.654-27.271c0-2.655-.6-3.862-1.931-3.862-2.172,0-7.843,8.085-7.843,27.875A27.371,27.371,0,0,0,1261.743,217.015Z" transform="translate(-813.328 -138.942)" fill="#fff"/></g></g></svg>