<svg id="Camada_1" data-name="Camada 1" xmlns="http://www.w3.org/2000/svg" viewBox="0 0 1016.88 290.78"><defs><style>.cls-1{fill:#fff;}</style></defs><path class="cls-1" d="M67.64,286.85c0-6.4,2.51-8.82,9.07-8.82a16.71,16.71,0,0,1,5.77.94l-.21,2.24a15.72,15.72,0,0,0-5.56-1c-5,0-6.66,1.67-6.66,6.6s1.65,6.61,6.66,6.61a15.51,15.51,0,0,0,5.56-1l.21,2.24a16.71,16.71,0,0,1-5.77.94C70.18,295.67,67.64,293.26,67.64,286.85Z" transform="translate(0 -13.25)"/><path class="cls-1" d="M85.4,277.43h2.29v17.94H85.4Z" transform="translate(0 -13.25)"/><path class="cls-1" d="M93.85,277.48h2.8l-3.73,4H90.6Zm-2.31,5.71h2.29v12.18H91.54Z" transform="translate(0 -13.25)"/><path class="cls-1" d="M97.69,283.19h1.73l.26,1.27a9.43,9.43,0,0,1,5.15-1.57c3.13,0,4.55,1.4,4.55,4.47v8H107.1v-7.47c0-2.06-.84-2.87-2.88-2.87a7.37,7.37,0,0,0-4.24,1.42v8.93H97.69Z" transform="translate(0 -13.25)"/><path class="cls-1" d="M112.84,278.34h2.54v2.54h-2.54Zm.12,4.85h2.29v12.18H113Z" transform="translate(0 -13.25)"/><path class="cls-1" d="M118.43,289.29c0-4.57,1.85-6.4,6.45-6.4a13.11,13.11,0,0,1,4.17.64l-.2,2.06a10.77,10.77,0,0,0-3.73-.61c-3.28,0-4.38,1.09-4.38,4.29s1.1,4.32,4.38,4.32a10.77,10.77,0,0,0,3.73-.61l.2,2.06a13.4,13.4,0,0,1-4.17.64C120.28,295.67,118.43,293.87,118.43,289.29Z" transform="translate(0 -13.25)"/><path class="cls-1" d="M130.77,291.81c0-2.77,1.5-3.79,5.47-3.79a42.55,42.55,0,0,1,4.37.28V288c0-2.34-.92-3.05-4-3.05a12,12,0,0,0-4.52.76l-.2-2.13a16.1,16.1,0,0,1,4.93-.69c4.6,0,6.07,1.19,6.07,5v7.52h-1.73l-.31-1.4a10,10,0,0,1-5.59,1.7C132.15,295.67,130.77,294.45,130.77,291.81Zm9.84.2v-1.76a39.37,39.37,0,0,0-4.35-.27c-2.44,0-3.17.53-3.17,1.75s.86,1.88,2.74,1.88a8.24,8.24,0,0,0,4.78-1.6Z" transform="translate(0 -13.25)"/><path class="cls-1" d="M152.19,278.34h14.74v2.16H154.58v5.13H165.2v2.16H154.58v5.42h12.56v2.16H152.19Z" transform="translate(0 -13.25)"/><path class="cls-1" d="M169.32,294.88l.2-2.16a15.69,15.69,0,0,0,5.56.89c2.67,0,3.51-.35,3.51-1.67,0-1.05-.53-1.38-2.92-1.6l-1.76-.18c-3.35-.33-4.44-1.15-4.44-3.51,0-2.8,1.55-3.76,5.92-3.76a16.11,16.11,0,0,1,4.83.63l-.2,2.14a16,16,0,0,0-4.9-.71c-2.57,0-3.4.35-3.4,1.6,0,1,.55,1.24,3,1.5l1.75.18c3.25.33,4.4,1.14,4.4,3.63,0,2.82-1.47,3.81-5.92,3.81A17.13,17.13,0,0,1,169.32,294.88Z" transform="translate(0 -13.25)"/><path class="cls-1" d="M183.67,283.19h1.73l.23,1.15a9.87,9.87,0,0,1,5.21-1.45c3.89,0,5.46,1.83,5.46,6.38s-1.57,6.4-5.46,6.4A9.82,9.82,0,0,1,186,294.4v6.17h-2.29Zm10.32,6.1c0-3.2-.94-4.34-3.61-4.34a7.6,7.6,0,0,0-4.41,1.42v5.82a7.61,7.61,0,0,0,4.42,1.42c2.66,0,3.6-1.14,3.6-4.32Z" transform="translate(0 -13.25)"/><path class="cls-1" d="M198.79,289.32c0-4.65,1.8-6.43,6.54-6.43,4.52,0,6.3,1.62,6.3,5.67,0,.48,0,1.11-.08,1.6H201.13c.2,2.69,1.42,3.45,4.85,3.45a11.76,11.76,0,0,0,4.73-.84l.2,2.11a13.92,13.92,0,0,1-4.95.79C200.72,295.67,198.79,294.1,198.79,289.32Zm10.58-1.12c-.18-2.49-1.2-3.25-4-3.25s-4,.81-4.19,3.25Z" transform="translate(0 -13.25)"/><path class="cls-1" d="M214.09,289.29c0-4.57,1.85-6.4,6.45-6.4a13.11,13.11,0,0,1,4.17.64l-.2,2.06a10.77,10.77,0,0,0-3.73-.61c-3.28,0-4.38,1.09-4.38,4.29s1.1,4.32,4.38,4.32a10.77,10.77,0,0,0,3.73-.61l.2,2.06a13.4,13.4,0,0,1-4.17.64C215.94,295.67,214.09,293.87,214.09,289.29Z" transform="translate(0 -13.25)"/><path class="cls-1" d="M227.23,278.34h2.54v2.54h-2.54Zm.12,4.85h2.29v12.18h-2.29Z" transform="translate(0 -13.25)"/><path class="cls-1" d="M232.51,291.81c0-2.77,1.5-3.79,5.46-3.79a42.55,42.55,0,0,1,4.37.28V288c0-2.34-.91-3.05-4-3.05a12,12,0,0,0-4.52.76l-.2-2.13a16.14,16.14,0,0,1,4.93-.69c4.6,0,6.07,1.19,6.07,5v7.52h-1.72l-.31-1.4a10,10,0,0,1-5.59,1.7C233.88,295.67,232.51,294.45,232.51,291.81Zm9.83.2v-1.76A39.35,39.35,0,0,0,238,290c-2.44,0-3.18.53-3.18,1.75s.87,1.88,2.75,1.88a8.19,8.19,0,0,0,4.77-1.6Z" transform="translate(0 -13.25)"/><path class="cls-1" d="M248.21,277.43h2.29v17.94h-2.29Z" transform="translate(0 -13.25)"/><path class="cls-1" d="M254.23,278.34h2.55v2.54h-2.55Zm.13,4.85h2.29v12.18h-2.29Z" transform="translate(0 -13.25)"/><path class="cls-1" d="M259.59,294.88l.2-2.16a15.78,15.78,0,0,0,5.57.89c2.67,0,3.51-.35,3.51-1.67,0-1.05-.54-1.38-2.93-1.6l-1.75-.18c-3.35-.33-4.45-1.15-4.45-3.51,0-2.8,1.55-3.76,5.92-3.76a16.07,16.07,0,0,1,4.83.63l-.2,2.14a15.93,15.93,0,0,0-4.9-.71c-2.57,0-3.4.35-3.4,1.6,0,1,.56,1.24,3,1.5l1.75.18c3.26.33,4.4,1.14,4.4,3.63,0,2.82-1.47,3.81-5.92,3.81A17.17,17.17,0,0,1,259.59,294.88Z" transform="translate(0 -13.25)"/><path class="cls-1" d="M274.74,291.53v-6.4h-2.67v-1.94h2.72l.2-3.48h2v3.48h3.86v1.93H277v6.2c0,1.66.41,2,2,2h1.9v2H278.5C275.78,295.37,274.74,294.38,274.74,291.53Z" transform="translate(0 -13.25)"/><path class="cls-1" d="M282.54,291.81c0-2.77,1.5-3.79,5.46-3.79a42.55,42.55,0,0,1,4.37.28V288c0-2.34-.91-3.05-4-3.05a12,12,0,0,0-4.52.76l-.2-2.13a16.14,16.14,0,0,1,4.93-.69c4.6,0,6.07,1.19,6.07,5v7.52h-1.73l-.3-1.4a10,10,0,0,1-5.59,1.7C283.91,295.67,282.54,294.45,282.54,291.81Zm9.83.2v-1.76A39.35,39.35,0,0,0,288,290c-2.44,0-3.18.53-3.18,1.75s.86,1.88,2.75,1.88a8.23,8.23,0,0,0,4.77-1.6Z" transform="translate(0 -13.25)"/><path class="cls-1" d="M303,289.32c0-4.65,1.8-6.43,6.54-6.43,4.52,0,6.3,1.62,6.3,5.67,0,.48,0,1.11-.08,1.6H305.38c.2,2.69,1.42,3.45,4.85,3.45a11.76,11.76,0,0,0,4.73-.84l.2,2.11a13.92,13.92,0,0,1-5,.79C305,295.67,303,294.1,303,289.32Zm10.58-1.12c-.18-2.49-1.2-3.25-4-3.25s-4,.81-4.19,3.25Z" transform="translate(0 -13.25)"/><path class="cls-1" d="M318.92,283.19h1.73l.26,1.2a8.15,8.15,0,0,1,4.65-1.5c1.75,0,2.92.51,3.53,1.65a8.47,8.47,0,0,1,4.9-1.65c2.84,0,4.09,1.34,4.09,4.47v8h-2.29v-7.47c0-2.08-.74-2.87-2.46-2.87a6.44,6.44,0,0,0-3.74,1.37c0,.3.05.63.05,1v8h-2.28v-7.48c0-2.08-.74-2.87-2.47-2.87a6.24,6.24,0,0,0-3.68,1.35v9h-2.29Z" transform="translate(0 -13.25)"/><path class="cls-1" d="M346.46,286.85c0-6.45,2.55-8.82,9.48-8.82a20.6,20.6,0,0,1,6.15.87l-.2,2.18a19,19,0,0,0-5.94-.89c-5.37,0-7.07,1.6-7.07,6.64s1.68,6.68,6.84,6.68a14.06,14.06,0,0,0,4.42-.61V288h-4.57v-2.16h7v8.77a19.55,19.55,0,0,1-6.61,1.05C349,295.67,346.46,293.28,346.46,286.85Z" transform="translate(0 -13.25)"/><path class="cls-1" d="M365.06,291.81c0-2.77,1.5-3.79,5.47-3.79a42.55,42.55,0,0,1,4.37.28V288c0-2.34-.92-3.05-4-3.05a12,12,0,0,0-4.52.76l-.2-2.13a16.1,16.1,0,0,1,4.93-.69c4.6,0,6.07,1.19,6.07,5v7.52h-1.73l-.3-1.4a10.05,10.05,0,0,1-5.6,1.7C366.44,295.67,365.06,294.45,365.06,291.81Zm9.84.2v-1.76a39.37,39.37,0,0,0-4.35-.27c-2.44,0-3.17.53-3.17,1.75s.86,1.88,2.74,1.88a8.24,8.24,0,0,0,4.78-1.6Z" transform="translate(0 -13.25)"/><path class="cls-1" d="M381.68,291.53v-6.4H379v-1.94h2.72l.2-3.48h2v3.48h3.87v1.93H384v6.2c0,1.66.41,2,2,2h1.91v2h-2.39C382.72,295.37,381.68,294.38,381.68,291.53Z" transform="translate(0 -13.25)"/><path class="cls-1" d="M389.66,289.29c0-4.65,1.8-6.4,6.68-6.4s6.69,1.76,6.69,6.4-1.8,6.38-6.69,6.38S389.66,293.92,389.66,289.29Zm11,0c0-3.28-1.09-4.34-4.37-4.34S392,286,392,289.29s1.09,4.32,4.37,4.32S400.71,292.55,400.71,289.29Z" transform="translate(0 -13.25)"/><path class="cls-1" d="M405.36,294.88l.2-2.16a15.75,15.75,0,0,0,5.57.89c2.66,0,3.5-.35,3.5-1.67,0-1.05-.53-1.38-2.92-1.6l-1.75-.18c-3.36-.33-4.45-1.15-4.45-3.51,0-2.8,1.55-3.76,5.92-3.76a16.11,16.11,0,0,1,4.83.63l-.2,2.14a16,16,0,0,0-4.9-.71c-2.57,0-3.41.35-3.41,1.6,0,1,.56,1.24,3,1.5l1.75.18c3.25.33,4.4,1.14,4.4,3.63,0,2.82-1.47,3.81-5.92,3.81A17.13,17.13,0,0,1,405.36,294.88Z" transform="translate(0 -13.25)"/><rect class="cls-1" x="66.51" y="257.1" width="351.16" height="1.95"/><rect class="cls-1" x="66.51" y="288.84" width="351.16" height="1.95"/><path class="cls-1" d="M42.36,200.05c-4.47,0-5-2.78-4.35-4,7.12-15.2,4.59-23.77-1.45-23.77-10.5,0-22.56,14.36-22.56,47.55,0,19.18,5.91,26.91,10.13,26.91s11.7-12.67,17.26-34.88c6.28-2.29,11.83-2.65,11.1,3.74L50,239.14c-4.71,41.63-19.07,49.12-24.74,49.12-10.14,0-20.88-6-25.22-11,1.2-3.38,3.86-6.88,6.15-6.88,4.59,0,11.1,12.91,19.55,12.91,6.64,0,11.59-13.88,13.4-36.32l1.32-13.76C32.46,250.61,24.13,255,17.13,255c-5.3,0-15.8-8.08-15.8-30.17,0-24.85,14.84-58.64,37.77-58.64C61.54,166.14,51.4,200.05,42.36,200.05Z" transform="translate(0 -13.25)"/><path class="cls-1" d="M100.28,239c1.81-1.32,4.83-.48,4.22,1.69-2.17,7.49-8.45,14-15.57,14.12-3,0-7-1.2-8.68-7.72-3.62,6.15-7,7.6-10.86,7.6-8.69,0-12.31-8.81-12.31-19.43,0-14,7.6-30.89,22.93-30.89,5.19,0,11.7,3.38,10.13,11.1,1.21.72,2,2.9.73,7.6-4.23,14.6-4.83,25.82.6,25.82C94,248.92,96.9,247.23,100.28,239ZM78,210.18c-6.63,0-10.25,16.17-10.25,27.64,0,6.4,1.32,11.22,3.86,11.22,3.5,0,7.48-6,9-25.22-1.81-.48-2.41-1.33-2.29-3.26,2.89-3,4.46-10.38-.37-10.38Z" transform="translate(0 -13.25)"/><path class="cls-1" d="M103.54,198.36l-6.52.48c-3.5.36-3.38-3.86-2.17-6.15h9.53l2.66-17c5.19-3.38,13.27-4.95,11.7.85-1.09,5.43-2.18,10.74-3.14,16l8.08-.12c5.19,0,5.56,1.56,3.87,4.82l-12.92.49c-5.31,29.92-7.84,54.06-1.56,54.06,7.11,0,11.82-10.38,14-16.42,1.93-1.2,4.82-.72,4.46,1.45-1,6.88-10.14,19.79-19.43,19.79C97.5,256.64,97.87,237,103.54,198.36Z" transform="translate(0 -13.25)"/><path class="cls-1" d="M173.4,208.86c0,7.24-5.06,17.25-14.84,20-2.9,17.37-13.75,25.82-19.91,25.82-4.22,0-13.63-2.41-13.63-19.91,0-21.48,11-29.93,15.92-29.08a9.38,9.38,0,0,1,6-2.66c6.63,0,12.31,5.19,12.31,16.78,0,1.32-.12,2.65-.12,3.86,5.06-1.57,9.53-6.64,11.1-16.53C172.2,206.56,173.4,207.41,173.4,208.86Zm-23.16,20.51c-6.76-1.09-12.92-5.67-13.16-11.58-4.7,15.56-.12,31.61,4.59,31.61,5,0,7.48-10.26,8.57-20Zm.48-6.52v-2.53c0-10.62-5.19-13.64-6-10.86-1.44,4.46,1.33,10.62,6,13.39Z" transform="translate(0 -13.25)"/><path class="cls-1" d="M228.43,172.77c0,19.55-3,40.79-8.45,56.84-.12,13.27.6,19.31,2.54,19.31,2.53,0,5.43-1.69,8.81-9.9,1.81-1.32,4.82-.48,4.22,1.69-2.17,7.48-8.45,14-15.57,14-3.62,0-5.79-3.62-6.88-10-4,6.27-8.68,9.9-13.87,10-7,0-11.83-10.13-11.83-22.2,0-13.75,6.88-28.6,16.41-28.6a16.25,16.25,0,0,1,9.78,2.9c.84-10.62,2.17-22.93,3.62-36C226.38,164.09,228.43,166.38,228.43,172.77Zm-15.2,38.74a16,16,0,0,0-5.79-1.09c-9.41,0-11.95,38-5.19,38,4.71,0,8-8.93,10.14-22.92.11-4.23.47-8.93.84-14Z" transform="translate(0 -13.25)"/><path class="cls-1" d="M273.2,239c1.81-1.32,4.82-.48,4.22,1.69-2.17,7.48-8.45,14-15.57,14.12-3,0-7-1.2-8.68-7.72-3.62,6.15-7,7.6-10.86,7.6-8.69,0-12.31-8.81-12.31-19.43,0-14,7.6-30.89,22.93-30.89,5.18,0,11.7,3.38,10.13,11.1,1.21.72,2.05,2.9.73,7.6-4.23,14.6-4.83,25.82.6,25.82C266.92,248.92,269.82,247.23,273.2,239Zm-22.32-28.84c-6.64,0-10.26,16.17-10.26,27.64,0,6.4,1.33,11.22,3.86,11.22,3.5,0,7.48-6,9.05-25.22-1.81-.48-2.41-1.33-2.29-3.26C254.14,217.54,255.7,210.18,250.88,210.18Zm7.48-31.25c2.9-3.14,7.6-.12,7.48,4.46-6.4,5.19-12.91,10.14-19.43,15.2-2.29,1.81-4.58,0-4.34-2.05C247.38,191,253.41,184.72,258.36,178.93Z" transform="translate(0 -13.25)"/><path class="cls-1" d="M303.13,237.94c1.8,0,4.34.72,3.61,2.9-3.25,9.89-3.13,19.06,5.56,19.06,3.13,0,10.25-3.38,10.37-12.91,0-18.82-24-19.31-24-47.3,0-23.17,15.2-38.49,28.12-38.49,22.56,0,16.17,35.11,4,35.11-1.81,0-4.34-.72-3.86-2.9,1.33-3.5,9.53-26.54-2.78-26.54-7,0-12.91,14.48-12.91,29.8,0,22.33,21.6,25.34,21.6,46.1,0,13.64-13,21-22.2,21C289.61,263.76,292,237.94,303.13,237.94Z" transform="translate(0 -13.25)"/><path class="cls-1" d="M352.12,207.89a9.71,9.71,0,0,1,7.72-4.83c6.64,0,12.31,5.19,12.31,16.78s-3.26,20.27-7.48,26.06a5.94,5.94,0,0,0,4.95,2.66c8.32,0,10.13-16.78,10.86-28.12-3.38-1.33-5.31-4.1-5.31-10,0-4.82,3.38-14.6,10.74-11.1a58.57,58.57,0,0,1,1.44,13.52c5.68.12,12.19-.85,14.73-2.54,1.81.12,3.5.73,2.53,4-7.12,24.73-4.59,34.63-1,34.63,2.54,0,5.44-1.69,8.81-9.9,1.81-1.32,4.83-.48,4.23,1.69-2.18,7.49-8.45,14-15.57,14-5.67,0-13.76-6.63-9.05-33.42-1.81.12-3.5.24-5.07.24-1.81,16.89-8.69,33.54-19.55,33.54a9.39,9.39,0,0,1-7.84-3.86c-2.9,2.3-5.79,3.5-8.09,3.5-4.22,0-13.63-2.41-13.63-19.91C337.88,214.41,347.17,207.41,352.12,207.89Zm8.81,33.3a68.52,68.52,0,0,0,2.41-15.32c-3.26,2-12.55.6-13.39-7.37-4.95,15.69-.25,30.9,4.58,30.9a4.38,4.38,0,0,0,3.5-2.06v-1.2c0-2.17.6-4.22,2.9-4.94Zm2.65-18.34v-2.53c0-10.62-5.19-13.64-6-10.86-1.21,3.74-.49,9.89,6,13.39Z" transform="translate(0 -13.25)"/><path class="cls-1" d="M415.71,198.36l-6.51.48c-3.5.36-3.38-3.86-2.18-6.15h9.54l2.65-17c5.19-3.38,13.28-4.95,11.7.85-1.08,5.43-2.17,10.74-3.13,16l8.08-.12c5.19,0,5.55,1.56,3.86,4.82l-12.91.49c-5.31,29.92-7.84,54.06-1.57,54.06,7.12,0,11.83-10.38,14-16.42,1.93-1.2,4.83-.72,4.47,1.45-1,6.88-10.14,19.79-19.43,19.79C409.68,256.64,410,237,415.71,198.36Z" transform="translate(0 -13.25)"/><path class="cls-1" d="M449.38,244.69c1.57,5.56,4.83,8.33,8.69,8.33,5.55,0,10.86-7.12,14-16.41,3-1.69,4.7.12,4.46,1.45-1.45,8.08-10.74,19.91-20.87,19.91-9.42,0-17.86-7.48-17.86-22.57,0-27.51,13.27-33.3,19.06-33.3,7.12,0,10,5,10,11.1C466.87,226.23,458.19,237.58,449.38,244.69Zm-1-5.43A42.27,42.27,0,0,0,458.07,212c0-2.65-.6-3.86-1.93-3.86-2.17,0-7.84,8.09-7.84,27.88a25.23,25.23,0,0,0,.12,3.25Z" transform="translate(0 -13.25)"/><path class="cls-1" d="M616.69,278.14c0-6.54,2.57-9,9.27-9a16.89,16.89,0,0,1,5.89,1l-.21,2.29a16.18,16.18,0,0,0-5.68-1c-5.11,0-6.8,1.71-6.8,6.75s1.69,6.74,6.8,6.74a15.94,15.94,0,0,0,5.68-1l.21,2.28a16.89,16.89,0,0,1-5.89,1C619.29,287.14,616.69,284.68,616.69,278.14Z" transform="translate(0 -13.25)"/><path class="cls-1" d="M634.83,268.51h2.34v18.32h-2.34Z" transform="translate(0 -13.25)"/><path class="cls-1" d="M643.46,268.56h2.86l-3.81,4.13h-2.36Zm-2.36,5.84h2.34v12.43H641.1Z" transform="translate(0 -13.25)"/><path class="cls-1" d="M647.39,274.4h1.76l.26,1.3a9.59,9.59,0,0,1,5.27-1.61c3.19,0,4.64,1.43,4.64,4.57v8.16H657V279.2c0-2.11-.86-2.94-2.94-2.94a7.51,7.51,0,0,0-4.33,1.46v9.11h-2.33Z" transform="translate(0 -13.25)"/><path class="cls-1" d="M662.85,269.45h2.59V272h-2.59Zm.13,4.95h2.33v12.43H663Z" transform="translate(0 -13.25)"/><path class="cls-1" d="M668.56,280.63c0-4.67,1.89-6.54,6.59-6.54a13.72,13.72,0,0,1,4.26.65l-.21,2.1a11.44,11.44,0,0,0-3.81-.62c-3.35,0-4.47,1.12-4.47,4.39S672,285,675.39,285a11.2,11.2,0,0,0,3.81-.63l.21,2.11a13.72,13.72,0,0,1-4.26.65C670.45,287.14,668.56,285.3,668.56,280.63Z" transform="translate(0 -13.25)"/><path class="cls-1" d="M681.17,283.2c0-2.83,1.53-3.87,5.57-3.87a39.16,39.16,0,0,1,4.47.29v-.32c0-2.38-.94-3.11-4.08-3.11a12.58,12.58,0,0,0-4.62.78l-.2-2.18a16.48,16.48,0,0,1,5-.7c4.7,0,6.21,1.22,6.21,5.06v7.68h-1.77l-.31-1.43a10.21,10.21,0,0,1-5.71,1.74C682.57,287.14,681.17,285.89,681.17,283.2Zm10,.2v-1.79a38.92,38.92,0,0,0-4.44-.28c-2.49,0-3.24.54-3.24,1.79s.88,1.92,2.8,1.92a8.51,8.51,0,0,0,4.88-1.64Z" transform="translate(0 -13.25)"/><path class="cls-1" d="M703,269.45h15.05v2.2H705.48v5.24h10.84v2.21H705.48v5.52h12.81v2.21H703Z" transform="translate(0 -13.25)"/><path class="cls-1" d="M720.52,286.34l.21-2.21a16.11,16.11,0,0,0,5.68.91c2.72,0,3.58-.36,3.58-1.71,0-1.07-.55-1.4-3-1.64l-1.8-.18c-3.42-.34-4.54-1.17-4.54-3.58,0-2.86,1.59-3.84,6.05-3.84a16.11,16.11,0,0,1,4.93.65l-.2,2.18a16,16,0,0,0-5-.73c-2.62,0-3.47.36-3.47,1.64,0,1,.57,1.27,3,1.53l1.8.18c3.32.34,4.49,1.17,4.49,3.71,0,2.88-1.51,3.89-6,3.89A17.59,17.59,0,0,1,720.52,286.34Z" transform="translate(0 -13.25)"/><path class="cls-1" d="M735.18,274.4H737l.23,1.17a10.07,10.07,0,0,1,5.32-1.48c4,0,5.58,1.87,5.58,6.51s-1.61,6.54-5.58,6.54a10,10,0,0,1-5-1.3v6.3h-2.34Zm10.54,6.23c0-3.27-1-4.44-3.69-4.44a7.91,7.91,0,0,0-4.51,1.45v5.95A7.87,7.87,0,0,0,742,285c2.72,0,3.68-1.17,3.68-4.41Z" transform="translate(0 -13.25)"/><path class="cls-1" d="M750.62,280.65c0-4.74,1.84-6.56,6.67-6.56,4.62,0,6.43,1.66,6.43,5.79,0,.49,0,1.14-.08,1.63H753c.21,2.75,1.46,3.53,5,3.53a12.29,12.29,0,0,0,4.83-.86l.2,2.15a14.28,14.28,0,0,1-5.06.81C752.59,287.14,750.62,285.53,750.62,280.65Zm10.79-1.14c-.18-2.54-1.22-3.32-4.1-3.32s-4.07.83-4.28,3.32Z" transform="translate(0 -13.25)"/><path class="cls-1" d="M766.24,280.63c0-4.67,1.89-6.54,6.59-6.54a13.62,13.62,0,0,1,4.25.65l-.2,2.1a11.54,11.54,0,0,0-3.82-.62c-3.34,0-4.46,1.12-4.46,4.39s1.12,4.41,4.46,4.41a11.3,11.3,0,0,0,3.82-.63l.2,2.11a13.62,13.62,0,0,1-4.25.65C768.12,287.14,766.24,285.3,766.24,280.63Z" transform="translate(0 -13.25)"/><path class="cls-1" d="M779.65,269.45h2.59V272h-2.59Zm.13,4.95h2.33v12.43h-2.33Z" transform="translate(0 -13.25)"/><path class="cls-1" d="M785.05,283.2c0-2.83,1.53-3.87,5.57-3.87a39.16,39.16,0,0,1,4.47.29v-.32c0-2.38-.94-3.11-4.08-3.11a12.49,12.49,0,0,0-4.61.78l-.21-2.18a16.48,16.48,0,0,1,5-.7c4.7,0,6.21,1.22,6.21,5.06v7.68h-1.77l-.31-1.43a10.21,10.21,0,0,1-5.71,1.74C786.45,287.14,785.05,285.89,785.05,283.2Zm10,.2v-1.79a38.92,38.92,0,0,0-4.44-.28c-2.49,0-3.24.54-3.24,1.79s.88,1.92,2.8,1.92a8.49,8.49,0,0,0,4.88-1.64Z" transform="translate(0 -13.25)"/><path class="cls-1" d="M801.08,268.51h2.33v18.32h-2.33Z" transform="translate(0 -13.25)"/><path class="cls-1" d="M807.23,269.45h2.59V272h-2.59Zm.13,4.95h2.33v12.43h-2.33Z" transform="translate(0 -13.25)"/><path class="cls-1" d="M812.7,286.34l.21-2.21a16.11,16.11,0,0,0,5.68.91c2.72,0,3.58-.36,3.58-1.71,0-1.07-.55-1.4-3-1.64l-1.8-.18c-3.42-.34-4.54-1.17-4.54-3.58,0-2.86,1.59-3.84,6-3.84a16.11,16.11,0,0,1,4.93.65l-.21,2.18a15.94,15.94,0,0,0-5-.73c-2.62,0-3.48.36-3.48,1.64,0,1,.58,1.27,3,1.53l1.79.18c3.32.34,4.49,1.17,4.49,3.71,0,2.88-1.5,3.89-6,3.89A17.59,17.59,0,0,1,812.7,286.34Z" transform="translate(0 -13.25)"/><path class="cls-1" d="M828.16,282.91v-6.53h-2.72v-2h2.78l.2-3.55h2.08v3.55h3.94v2H830.5v6.33c0,1.69.41,2.08,2,2.08h2v2.05H832C829.23,286.83,828.16,285.82,828.16,282.91Z" transform="translate(0 -13.25)"/><path class="cls-1" d="M836.13,283.2c0-2.83,1.53-3.87,5.58-3.87a39.13,39.13,0,0,1,4.46.29v-.32c0-2.38-.93-3.11-4.07-3.11a12.51,12.51,0,0,0-4.62.78l-.21-2.18a16.55,16.55,0,0,1,5-.7c4.69,0,6.2,1.22,6.2,5.06v7.68h-1.77l-.31-1.43a10.18,10.18,0,0,1-5.71,1.74C837.53,287.14,836.13,285.89,836.13,283.2Zm10,.2v-1.79a38.63,38.63,0,0,0-4.44-.28c-2.49,0-3.24.54-3.24,1.79s.88,1.92,2.8,1.92a8.49,8.49,0,0,0,4.88-1.64Z" transform="translate(0 -13.25)"/><path class="cls-1" d="M857.07,280.65c0-4.74,1.84-6.56,6.67-6.56,4.61,0,6.43,1.66,6.43,5.79,0,.49,0,1.14-.08,1.63H859.45c.21,2.75,1.46,3.53,5,3.53a12.29,12.29,0,0,0,4.83-.86l.2,2.15a14.31,14.31,0,0,1-5.06.81C859,287.14,857.07,285.53,857.07,280.65Zm10.79-1.14c-.18-2.54-1.22-3.32-4.1-3.32s-4.07.83-4.28,3.32Z" transform="translate(0 -13.25)"/><path class="cls-1" d="M873.28,274.4h1.77l.26,1.22a8.29,8.29,0,0,1,4.74-1.53c1.79,0,3,.52,3.61,1.68a8.73,8.73,0,0,1,5-1.68c2.91,0,4.18,1.37,4.18,4.57v8.16H890.5V279.2c0-2.13-.75-2.94-2.51-2.94a6.55,6.55,0,0,0-3.82,1.4c0,.32.06.65.06,1v8.17h-2.34v-7.63c0-2.13-.75-2.93-2.52-2.93a6.37,6.37,0,0,0-3.76,1.37v9.19h-2.33Z" transform="translate(0 -13.25)"/><path class="cls-1" d="M901.4,278.14c0-6.59,2.6-9,9.68-9a21.14,21.14,0,0,1,6.28.88l-.2,2.24a19.22,19.22,0,0,0-6.07-.91c-5.48,0-7.22,1.63-7.22,6.77s1.72,6.82,7,6.82a14.15,14.15,0,0,0,4.52-.62v-5H910.7v-2.21h7.11v9a20.16,20.16,0,0,1-6.75,1.07C904,287.14,901.4,284.7,901.4,278.14Z" transform="translate(0 -13.25)"/><path class="cls-1" d="M920.4,283.2c0-2.83,1.53-3.87,5.57-3.87a39.16,39.16,0,0,1,4.47.29v-.32c0-2.38-.94-3.11-4.08-3.11a12.58,12.58,0,0,0-4.62.78l-.2-2.18a16.48,16.48,0,0,1,5-.7c4.7,0,6.21,1.22,6.21,5.06v7.68H931l-.31-1.43a10.21,10.21,0,0,1-5.71,1.74C921.8,287.14,920.4,285.89,920.4,283.2Zm10,.2v-1.79a38.92,38.92,0,0,0-4.44-.28c-2.49,0-3.24.54-3.24,1.79s.88,1.92,2.8,1.92a8.51,8.51,0,0,0,4.88-1.64Z" transform="translate(0 -13.25)"/><path class="cls-1" d="M937.36,282.91v-6.53h-2.72v-2h2.77l.21-3.55h2.07v3.55h3.95v2h-3.95v6.33c0,1.69.42,2.08,2,2.08h1.95v2.05H941.2C938.43,286.83,937.36,285.82,937.36,282.91Z" transform="translate(0 -13.25)"/><path class="cls-1" d="M945.51,280.63c0-4.75,1.84-6.54,6.82-6.54s6.83,1.79,6.83,6.54-1.84,6.51-6.83,6.51S945.51,285.35,945.51,280.63Zm11.29,0c0-3.35-1.12-4.44-4.47-4.44s-4.46,1.09-4.46,4.44S949,285,952.33,285,956.8,284,956.8,280.63Z" transform="translate(0 -13.25)"/><path class="cls-1" d="M961.54,286.34l.21-2.21a16.11,16.11,0,0,0,5.68.91c2.72,0,3.58-.36,3.58-1.71,0-1.07-.55-1.4-3-1.64l-1.8-.18c-3.42-.34-4.54-1.17-4.54-3.58,0-2.86,1.59-3.84,6-3.84a16.11,16.11,0,0,1,4.93.65l-.2,2.18a16,16,0,0,0-5-.73c-2.62,0-3.48.36-3.48,1.64,0,1,.58,1.27,3,1.53l1.79.18c3.32.34,4.49,1.17,4.49,3.71,0,2.88-1.5,3.89-6,3.89A17.59,17.59,0,0,1,961.54,286.34Z" transform="translate(0 -13.25)"/><rect class="cls-1" x="615.54" y="248.03" width="358.57" height="1.99"/><rect class="cls-1" x="615.54" y="280.44" width="358.57" height="1.99"/><path class="cls-1" d="M592.92,189.5c-4.56,0-5-2.83-4.43-4.07,7.27-15.52,4.68-24.27-1.48-24.27-10.72,0-23,14.66-23,48.55,0,19.59,6,27.47,10.35,27.47s11.95-12.93,17.62-35.6c6.41-2.35,12.07-2.72,11.33,3.82l-2.58,24c-4.81,42.51-19.47,50.15-25.26,50.15-10.35,0-21.32-6.16-25.76-11.21,1.24-3.45,4-7,6.29-7,4.68,0,11.33,13.19,20,13.19,6.77,0,11.83-14.17,13.68-37.09L591,223.38c-8.13,17.75-16.63,22.18-23.78,22.18-5.42,0-16.14-8.25-16.14-30.8,0-25.38,15.16-59.88,38.57-59.88C612.52,154.88,602.16,189.5,592.92,189.5Z" transform="translate(0 -13.25)"/><path class="cls-1" d="M652.07,229.3c1.85-1.35,4.93-.49,4.31,1.72-2.22,7.64-8.62,14.3-15.89,14.42-3.08,0-7.15-1.23-8.88-7.88-3.69,6.28-7.14,7.76-11.08,7.76-8.88,0-12.57-9-12.57-19.84,0-14.3,7.76-31.54,23.41-31.54,5.3,0,12,3.45,10.35,11.33,1.23.74,2.09,3,.74,7.76-4.32,14.91-4.93,26.37.61,26.37C645.66,239.4,648.62,237.68,652.07,229.3Zm-22.8-29.45c-6.77,0-10.47,16.51-10.47,28.22,0,6.53,1.36,11.46,3.94,11.46,3.58,0,7.64-6.16,9.24-25.76-1.84-.49-2.46-1.35-2.34-3.32,3-3.08,4.56-10.6-.37-10.6Z" transform="translate(0 -13.25)"/><path class="cls-1" d="M655.4,187.78l-6.66.49c-3.57.37-3.45-3.94-2.22-6.28h9.74L659,164.61c5.3-3.45,13.55-5.05,11.95.86-1.11,5.55-2.22,11-3.21,16.39l8.26-.12c5.3,0,5.67,1.6,3.94,4.93l-13.18.49c-5.42,30.56-8,55.2-1.6,55.2,7.26,0,12.07-10.59,14.29-16.76,2-1.23,4.93-.74,4.56,1.48-1,7-10.35,20.21-19.84,20.21C649.23,247.29,649.6,227.2,655.4,187.78Z" transform="translate(0 -13.25)"/><path class="cls-1" d="M726.74,198.5c0,7.39-5.18,17.61-15.16,20.45-3,17.74-14.05,26.37-20.33,26.37-4.31,0-13.92-2.47-13.92-20.33,0-21.94,11.21-30.56,16.26-29.7a9.59,9.59,0,0,1,6.16-2.71c6.78,0,12.57,5.3,12.57,17.13,0,1.35-.12,2.71-.12,3.94,5.17-1.6,9.73-6.78,11.33-16.88C725.5,196.15,726.74,197,726.74,198.5Zm-23.66,20.94c-6.9-1.11-13.19-5.79-13.43-11.83-4.81,15.9-.13,32.29,4.68,32.29,5,0,7.64-10.48,8.75-20.46Zm.49-6.65V210.2c0-10.84-5.3-13.92-6.16-11.09-1.48,4.56,1.36,10.84,6.16,13.68Z" transform="translate(0 -13.25)"/><path class="cls-1" d="M774.75,161.65c0,20-3.08,41.65-8.62,58-.12,13.55.61,19.71,2.59,19.71,2.58,0,5.54-1.72,9-10.1,1.85-1.36,4.93-.5,4.31,1.72-2.22,7.64-8.62,14.3-15.89,14.3-3.7,0-5.92-3.7-7-10.23-4.06,6.41-8.87,10.11-14.17,10.23-7.14,0-12.07-10.35-12.07-22.67,0-14.05,7-29.2,16.76-29.2a16.54,16.54,0,0,1,10,3c.86-10.84,2.21-23.41,3.69-36.72C772.66,152.78,774.75,155.12,774.75,161.65ZM759.23,201.2a16.14,16.14,0,0,0-5.91-1.1c-9.61,0-12.2,38.81-5.3,38.81,4.81,0,8.13-9.12,10.35-23.41.12-4.31.49-9.12.86-14.29Z" transform="translate(0 -13.25)"/><path class="cls-1" d="M820.47,229.3c1.84-1.36,4.92-.49,4.31,1.72-2.22,7.64-8.63,14.3-15.9,14.42-3.08,0-7.14-1.23-8.87-7.89-3.69,6.29-7.15,7.76-11.09,7.76-8.87,0-12.57-9-12.57-19.83,0-14.3,7.76-31.55,23.42-31.55,5.29,0,12,3.46,10.35,11.34,1.23.74,2.09,3,.74,7.76-4.32,14.91-4.93,26.37.61,26.37C814.06,239.4,817,237.68,820.47,229.3Zm-22.8-29.45c-6.78,0-10.47,16.51-10.47,28.22,0,6.53,1.35,11.46,3.94,11.46,3.57,0,7.64-6.16,9.24-25.76-1.85-.49-2.46-1.35-2.34-3.32C801,207.37,802.6,199.85,797.67,199.85Zm16.53-32.27c2.38-3.66,7.63-1.43,8.3,3.2-5.55,6.33-11.25,12.43-16.94,18.64-2,2.22-4.62.79-4.73-1.31C805.22,181.61,810.22,174.26,814.2,167.58Z" transform="translate(0 -13.25)"/><path class="cls-1" d="M839.79,228.19c1.85,0,4.44.74,3.7,3-3.33,10.1-3.21,19.47,5.67,19.47,3.2,0,10.47-3.45,10.59-13.18,0-19.23-24.52-19.72-24.52-48.3,0-23.66,15.52-39.31,28.71-39.31,23,0,16.51,35.86,4.07,35.86-1.85,0-4.44-.74-3.94-3,1.35-3.58,9.73-27.11-2.84-27.11-7.15,0-13.18,14.78-13.18,30.43,0,22.8,22.05,25.88,22.05,47.08,0,13.92-13.31,21.44-22.67,21.44C826,254.56,828.46,228.19,839.79,228.19Z" transform="translate(0 -13.25)"/><path class="cls-1" d="M889.82,197.51a9.9,9.9,0,0,1,7.88-4.93c6.78,0,12.57,5.3,12.57,17.13s-3.32,20.7-7.64,26.61a6,6,0,0,0,5,2.71c8.51,0,10.36-17.12,11.09-28.71-3.45-1.35-5.42-4.18-5.42-10.22,0-4.93,3.45-14.91,11-11.34a60.45,60.45,0,0,1,1.48,13.8c5.79.13,12.44-.86,15-2.59,1.85.13,3.57.74,2.59,4.07-7.27,25.26-4.69,35.36-1,35.36,2.59,0,5.55-1.72,9-10.1,1.84-1.35,4.92-.49,4.31,1.72-2.22,7.64-8.63,14.3-15.9,14.3-5.79,0-14-6.78-9.24-34.13-1.85.12-3.57.25-5.17.25-1.85,17.25-8.88,34.25-20,34.25a9.63,9.63,0,0,1-8-3.94c-3,2.34-5.92,3.57-8.26,3.57-4.31,0-13.92-2.46-13.92-20.33C875.28,204.16,884.77,197,889.82,197.51Zm9,34a69,69,0,0,0,2.47-15.65c-3.33,2.1-12.82.62-13.68-7.51-5.05,16-.25,31.54,4.68,31.54a4.49,4.49,0,0,0,3.58-2.09v-1.24c0-2.21.61-4.31,2.95-5Zm2.71-18.73V210.2c0-10.84-5.29-13.92-6.16-11.09-1.23,3.82-.49,10.11,6.16,13.68Z" transform="translate(0 -13.25)"/><path class="cls-1" d="M954.75,187.78l-6.65.49c-3.57.37-3.45-3.94-2.22-6.28h9.74l2.71-17.38c5.3-3.45,13.55-5.05,11.94.86-1.11,5.55-2.21,11-3.2,16.39l8.26-.12c5.29,0,5.66,1.6,3.94,4.93l-13.18.49c-5.43,30.56-8,55.2-1.61,55.2,7.27,0,12.08-10.59,14.3-16.76,2-1.23,4.93-.74,4.56,1.48-1,7-10.35,20.21-19.84,20.21C948.59,247.29,949,227.2,954.75,187.78Z" transform="translate(0 -13.25)"/><path class="cls-1" d="M989.13,235.09c1.6,5.67,4.93,8.5,8.87,8.5,5.67,0,11.09-7.27,14.3-16.76,3.08-1.72,4.8.13,4.56,1.48-1.48,8.26-11,20.33-21.32,20.33-9.61,0-18.24-7.64-18.24-23,0-28.09,13.56-34,19.47-34,7.27,0,10.23,5.05,10.23,11.33C1007,216.24,998.13,227.82,989.13,235.09Zm-1-5.54A43.24,43.24,0,0,0,998,201.7c0-2.71-.61-3.94-2-3.94-2.22,0-8,8.25-8,28.46a28.52,28.52,0,0,0,.13,3.33Z" transform="translate(0 -13.25)"/><path class="cls-1" d="M860.86,152c-4.09-21.8-23.17-16.17-34.43-4.06-11,11.85-22.25,11.93-29.72,9.91a35.3,35.3,0,0,1-12.56-6.45c-46.18,8.37-87.61-30.64-81.39-77.69,7.12-53.79,72.55-80.53,115-43,3.72,2.37,28.4,26.23,22.77,62.85a2.46,2.46,0,0,1-4.87-.75,64.65,64.65,0,0,0,.61-14.47c-2.17,9.25-6.29,17.38-7,18.2a72,72,0,0,1,0,16,63.6,63.6,0,0,0,3.76-8.84,2.46,2.46,0,1,1,4.66,1.58A69.61,69.61,0,0,1,790.61,150c10.75,6.45,22.14,5.51,32.21-5.32,15.44-16.6,38.26-18.13,42.88,6.5a2.46,2.46,0,0,1-4.84.91ZM738.48,138.41a76.09,76.09,0,0,1-9.89-12,73.87,73.87,0,0,1-9.91-6.5A65,65,0,0,0,738.48,138.41ZM711.33,106a69.7,69.7,0,0,0,12.1,11.26,74.61,74.61,0,0,1-3.95-10,71.28,71.28,0,0,1-10.21-7.64A66.23,66.23,0,0,0,711.33,106Zm-3.75-15a66,66,0,0,0,10,9.06,74.05,74.05,0,0,1-1.24-7.87,71.45,71.45,0,0,1-9.15-5.32C707.28,88.43,707.42,89.75,707.58,91Zm-.47-10.26A65.74,65.74,0,0,0,716,86.51c-.07-2.37,0-4.72.13-7.28s.46-5,.87-7.52a63.18,63.18,0,0,0-9.48,3.94C707.25,77.76,707.16,79.31,707.11,80.77Zm1.32-11a68.27,68.27,0,0,1,9.65-3.5,75.52,75.52,0,0,1,3.39-10.56,65.5,65.5,0,0,0-10.43,5A63,63,0,0,0,708.43,69.74ZM719,45.62a65.29,65.29,0,0,0-4.73,7.78,69.48,69.48,0,0,1,10.06-3.84,74.56,74.56,0,0,1,5.88-9.6A65.83,65.83,0,0,0,719,45.62Zm8.73-10a69.13,69.13,0,0,1,8.2-2.73,76.09,76.09,0,0,1,10.29-9.37A65,65,0,0,0,727.68,35.65Zm84.81-2.93a52.44,52.44,0,0,0-25.9,5.72A70.57,70.57,0,0,1,809,53.75,65.91,65.91,0,0,0,813.9,33.9C813.44,33.5,813,33.11,812.49,32.72Zm11.13,11.61a66.37,66.37,0,0,0-5.26-6.21,70.88,70.88,0,0,1-5.78,19.6A71.81,71.81,0,0,1,820,68.25,66.92,66.92,0,0,0,823.62,44.33Zm9.7,18.75a63.66,63.66,0,0,0-4.94-11.38A71.33,71.33,0,0,1,823,74.09a72.86,72.86,0,0,1,4.86,14.21A68.75,68.75,0,0,0,833.32,63.08ZM817,129.17a63.56,63.56,0,0,0,5.06-5.56c10-34.08-8.07-70-40.85-82a54,54,0,0,0-10.88,9.65C802.27,62.59,821.82,95.29,817,129.17Zm-6,5.16c7.88-34.06-11.21-68.27-43.9-79a52,52,0,0,0-6.07,11.42,71.87,71.87,0,0,1,44.49,71.32A65.52,65.52,0,0,0,811.05,134.33ZM793.17,102.4a67.44,67.44,0,0,0-8.92-13.14,71.83,71.83,0,0,1-25,9.17,53.08,53.08,0,0,0,5.89,14.13A66.62,66.62,0,0,0,793.17,102.4Zm-25,14.7A53.54,53.54,0,0,0,780,128.68a68.64,68.64,0,0,0,19.53-7.91,68.23,68.23,0,0,0-4.27-13.9A71.5,71.5,0,0,1,768.17,117.1Zm12.64-31.52a65.44,65.44,0,0,0-21.28-14.13,52.53,52.53,0,0,0-1.29,22.16A65.8,65.8,0,0,0,780.81,85.58Zm19.87,51.89a67.5,67.5,0,0,0-.31-11.48,73.6,73.6,0,0,1-14.59,6.24A52.1,52.1,0,0,0,800.68,137.47ZM798.14,142A56.56,56.56,0,0,1,764,119.92c-27.47-37.63-2.22-88.49,41.75-92a64.54,64.54,0,0,0-12.53-6A63.57,63.57,0,0,0,740,73.21a2.46,2.46,0,0,1-4.84-.91,68.75,68.75,0,0,1,47.71-53.09,65.15,65.15,0,0,0-18.53-.53c-53,22.48-59.43,96.78-8.48,127a65.07,65.07,0,0,0,18.44,1.94A68.67,68.67,0,0,1,734,84.16a2.45,2.45,0,0,1,2.49-2.43h.13a2.48,2.48,0,0,1,2.3,2.49,63.71,63.71,0,0,0,46,62.06A63.93,63.93,0,0,0,798.14,142Z" transform="translate(0 -13.25)"/></svg>