<svg id="logo-gato-da-sorte" xmlns="http://www.w3.org/2000/svg" width="220" height="59.785" viewBox="0 0 220 59.785">
  <g id="Grupo_2" data-name="Grupo 2" transform="translate(0)">
    <path id="Caminho_42" data-name="Caminho 42" d="M211.415,149a1.744,1.744,0,1,1-1.866,1.74A1.806,1.806,0,0,1,211.415,149Z" transform="translate(-178.079 -125.61)"/>
    <path id="Caminho_43" data-name="Caminho 43" d="M75.35,59.012A16.58,16.58,0,0,1,72.581,50.1c0-6.776,4.032-9.16,4.2-9.254a1.126,1.126,0,0,0,.44-1.6,1.307,1.307,0,0,0-1.72-.411c-.221.123-5.426,3.089-5.426,11.267a18.717,18.717,0,0,0,3.062,10.007c.978,1.714,1.749,3.069,1.749,4.617a2.97,2.97,0,0,1-.748,2.32,1.731,1.731,0,0,1-1.162.354,1.33,1.33,0,0,0-.181-.012h-4.62a4.774,4.774,0,0,0,.855-2.711V11.936a1.186,1.186,0,0,0-.919-1.127,1.3,1.3,0,0,0-1.411.522l-6.13,9.458c-1.881-.033-7.408-.074-23.952-.074-3.513,0-5.252,0-6.13.008L24.837,10.589a1.289,1.289,0,0,0-1.411-.6,1.19,1.19,0,0,0-.958,1.136v53.55a5.249,5.249,0,0,0,5.418,5.051H72.722c.082.007.2.014.345.014a4.311,4.311,0,0,0,2.69-.91,4.981,4.981,0,0,0,1.636-4.106C77.392,62.6,76.4,60.855,75.35,59.012Z" transform="translate(-22.468 -9.957)"/>
  </g>
  <g id="Grupo_3" data-name="Grupo 3" transform="translate(56.212 14.519)">
    <path id="Caminho_44" data-name="Caminho 44" d="M371.191,118.031c-1.534,0-1.7-.954-1.493-1.369,2.447-5.226,1.576-8.17-.5-8.17-3.608,0-7.755,4.935-7.755,16.34,0,6.594,2.032,9.249,3.484,9.249s4.023-4.355,5.931-11.986c2.157-.788,4.064-.912,3.816,1.286l-.871,8.087c-1.617,14.308-6.553,16.88-8.5,16.88a13,13,0,0,1-8.668-3.774c.415-1.161,1.327-2.364,2.115-2.364,1.576,0,3.815,4.438,6.719,4.438,2.281,0,3.981-4.769,4.6-12.483l.456-4.728c-2.737,5.972-5.6,7.465-8,7.465-1.825,0-5.433-2.779-5.433-10.368,0-8.543,5.1-20.156,12.981-20.156C377.785,106.377,374.3,118.031,371.191,118.031Z" transform="translate(-356.634 -104.677)"/>
    <path id="Caminho_45" data-name="Caminho 45" d="M488.1,196.436c.622-.456,1.659-.166,1.452.581-.747,2.571-2.9,4.811-5.35,4.853-1.037,0-2.405-.415-2.986-2.654-1.244,2.115-2.405,2.613-3.732,2.613-2.986,0-4.23-3.027-4.23-6.677,0-4.811,2.613-10.617,7.88-10.617,1.783,0,4.023,1.161,3.484,3.815.415.249.705,1,.249,2.613-1.452,5.018-1.659,8.875.207,8.875C485.945,199.837,486.94,199.256,488.1,196.436Zm-7.672-9.912c-2.281,0-3.525,5.557-3.525,9.5,0,2.2.456,3.857,1.327,3.857,1.2,0,2.571-2.074,3.111-8.668a.909.909,0,0,1-.788-1.12C481.549,189.054,482.088,186.524,480.429,186.524Z" transform="translate(-453.637 -169.686)"/>
    <path id="Caminho_46" data-name="Caminho 46" d="M552.109,128.515l-2.24.166c-1.2.124-1.161-1.327-.747-2.115H552.4l.913-5.848c1.783-1.161,4.562-1.7,4.023.29-.373,1.866-.746,3.691-1.078,5.516l2.779-.041c1.783,0,1.908.539,1.327,1.659l-4.438.166c-1.825,10.285-2.7,18.58-.539,18.58,2.447,0,4.064-3.567,4.811-5.64.663-.415,1.659-.249,1.534.5-.332,2.364-3.484,6.8-6.677,6.8C550.035,148.547,550.159,141.787,552.109,128.515Z" transform="translate(-516.524 -115.742)"/>
    <path id="Caminho_47" data-name="Caminho 47" d="M628.692,183.812a7.427,7.427,0,0,1-5.1,6.884c-1,5.972-4.728,8.875-6.843,8.875-1.452,0-4.687-.829-4.687-6.843,0-7.382,3.774-10.285,5.474-10a3.21,3.21,0,0,1,2.074-.912c2.281,0,4.23,1.783,4.23,5.765,0,.456-.041.913-.041,1.327,1.742-.539,3.276-2.281,3.815-5.682C628.277,183.024,628.692,183.314,628.692,183.812Zm-7.963,7.05c-2.322-.373-4.438-1.949-4.521-3.981-1.617,5.35-.041,10.866,1.576,10.866C619.485,197.747,620.356,194.222,620.729,190.862Zm.166-2.24v-.871c0-3.65-1.783-4.686-2.074-3.733A4.319,4.319,0,0,0,620.895,188.623Z" transform="translate(-569.094 -167.43)"/>
    <path id="Caminho_48" data-name="Caminho 48" d="M753.628,109.7a64.575,64.575,0,0,1-2.9,19.534c-.042,4.562.207,6.636.871,6.636.871,0,1.866-.581,3.028-3.4.622-.456,1.659-.166,1.452.581-.747,2.571-2.9,4.811-5.35,4.811-1.244,0-1.991-1.244-2.364-3.442-1.369,2.157-2.986,3.4-4.769,3.442-2.406,0-4.064-3.484-4.064-7.631,0-4.728,2.364-9.829,5.64-9.829a5.575,5.575,0,0,1,3.359,1c.29-3.65.747-7.88,1.244-12.359C752.923,106.716,753.628,107.5,753.628,109.7ZM748.4,123.015a5.467,5.467,0,0,0-1.991-.373c-3.235,0-4.106,13.064-1.783,13.064,1.618,0,2.737-3.069,3.484-7.88C748.153,126.374,748.278,124.757,748.4,123.015Z" transform="translate(-675.118 -105.721)"/>
    <path id="Caminho_49" data-name="Caminho 49" d="M841.409,150.974c.622-.456,1.659-.166,1.451.581-.747,2.571-2.9,4.811-5.35,4.853-1.037,0-2.406-.415-2.986-2.654-1.244,2.115-2.405,2.613-3.732,2.613-2.986,0-4.231-3.027-4.231-6.677,0-4.811,2.613-10.617,7.88-10.617,1.783,0,4.023,1.161,3.484,3.815.414.249.7,1,.249,2.613-1.452,5.018-1.659,8.875.207,8.875C839.252,154.375,840.247,153.794,841.409,150.974Zm-7.673-9.912c-2.281,0-3.525,5.557-3.525,9.5,0,2.2.456,3.857,1.327,3.857,1.2,0,2.571-2.074,3.111-8.668a.909.909,0,0,1-.788-1.12C834.856,143.592,835.395,141.062,833.736,141.062Zm2.571-10.742c1-1.078,2.613-.041,2.572,1.534-2.2,1.783-4.438,3.484-6.677,5.226a.871.871,0,0,1-1.493-.705C832.533,134.468,834.607,132.311,836.307,130.32Z" transform="translate(-747.512 -124.224)"/>
    <path id="Caminho_50" data-name="Caminho 50" d="M961.74,122.646c.622,0,1.493.249,1.244,1-1.12,3.4-1.078,6.553,1.908,6.553,1.078,0,3.525-1.161,3.567-4.438,0-6.47-8.253-6.636-8.253-16.258,0-7.963,5.226-13.23,9.663-13.23,7.756,0,5.557,12.069,1.369,12.069-.622,0-1.493-.249-1.327-1,.456-1.2,3.276-9.124-.954-9.124-2.406,0-4.438,4.977-4.438,10.244,0,7.672,7.424,8.709,7.424,15.843,0,4.686-4.479,7.216-7.631,7.216C957.095,131.521,957.924,122.646,961.74,122.646Z" transform="translate(-857.558 -96.269)"/>
    <path id="Caminho_51" data-name="Caminho 51" d="M1051.872,175.864a3.332,3.332,0,0,1,2.654-1.659c2.281,0,4.23,1.783,4.23,5.765a15.046,15.046,0,0,1-2.571,8.958,2.035,2.035,0,0,0,1.7.912c2.862,0,3.484-5.765,3.732-9.663-1.161-.456-1.825-1.41-1.825-3.442,0-1.659,1.161-5.018,3.691-3.815a20.2,20.2,0,0,1,.5,4.645c1.949.042,4.189-.29,5.06-.871.622.041,1.2.249.871,1.369-2.447,8.5-1.576,11.9-.332,11.9.871,0,1.866-.581,3.028-3.4.622-.456,1.659-.166,1.452.581-.747,2.571-2.9,4.811-5.35,4.811-1.949,0-4.728-2.281-3.111-11.488-.622.042-1.2.083-1.742.083-.622,5.806-2.986,11.53-6.719,11.53a3.242,3.242,0,0,1-2.7-1.327,4.819,4.819,0,0,1-2.779,1.2c-1.452,0-4.686-.829-4.686-6.843C1046.978,178.1,1050.172,175.7,1051.872,175.864Zm3.028,11.447a23.338,23.338,0,0,0,.829-5.267c-1.12.705-4.313.207-4.6-2.53-1.7,5.392-.083,10.617,1.576,10.617a1.5,1.5,0,0,0,1.2-.705v-.415A1.564,1.564,0,0,1,1054.9,187.31Zm.912-6.3v-.871c0-3.65-1.783-4.686-2.074-3.733A3.862,3.862,0,0,0,1055.812,181.007Z" transform="translate(-930.851 -159.814)"/>
    <path id="Caminho_52" data-name="Caminho 52" d="M1189.937,128.515l-2.24.166c-1.2.124-1.161-1.327-.747-2.115h3.277l.912-5.848c1.783-1.161,4.562-1.7,4.023.29-.373,1.866-.746,3.691-1.078,5.516l2.779-.041c1.783,0,1.908.539,1.328,1.659l-4.438.166c-1.825,10.285-2.7,18.58-.539,18.58,2.447,0,4.064-3.567,4.811-5.64.663-.415,1.659-.249,1.534.5-.332,2.364-3.484,6.8-6.677,6.8C1187.864,148.547,1187.988,141.787,1189.937,128.515Z" transform="translate(-1047.06 -115.742)"/>
    <path id="Caminho_53" data-name="Caminho 53" d="M1255.105,194.489c.539,1.908,1.659,2.862,2.986,2.862,1.908,0,3.733-2.447,4.811-5.641,1.037-.581,1.617.042,1.535.5-.5,2.779-3.691,6.843-7.175,6.843-3.235,0-6.138-2.571-6.138-7.756,0-9.456,4.562-11.447,6.553-11.447,2.447,0,3.442,1.7,3.442,3.815C1261.119,188.144,1258.133,192.042,1255.105,194.489Zm-.332-1.866a14.542,14.542,0,0,0,3.318-9.373c0-.912-.207-1.327-.664-1.327-.747,0-2.7,2.779-2.7,9.58A9.377,9.377,0,0,0,1254.774,192.623Z" transform="translate(-1100.657 -165.789)"/>
  </g>
  <g id="Grupo_4" data-name="Grupo 4" transform="translate(30.365 32.485)">
    <line id="Linha_7" data-name="Linha 7" y1="6.357" x2="10.116" transform="translate(0)" fill="none" stroke="#fff" stroke-linecap="round" stroke-miterlimit="10" stroke-width="2"/>
    <line id="Linha_8" data-name="Linha 8" y1="0.41" x2="10.116" transform="translate(0 8.099)" fill="none" stroke="#fff" stroke-linecap="round" stroke-miterlimit="10" stroke-width="2"/>
    <line id="Linha_9" data-name="Linha 9" x2="10.116" y2="4.306" transform="translate(0 10.868)" fill="none" stroke="#fff" stroke-linecap="round" stroke-miterlimit="10" stroke-width="2"/>
  </g>
  <g id="Grupo_5" data-name="Grupo 5" transform="translate(6.748 32.485)">
    <line id="Linha_10" data-name="Linha 10" x1="10.116" y1="6.357" transform="translate(0)" fill="none" stroke="#fff" stroke-linecap="round" stroke-miterlimit="10" stroke-width="2"/>
    <line id="Linha_11" data-name="Linha 11" x1="10.116" y1="0.41" transform="translate(0 8.099)" fill="none" stroke="#fff" stroke-linecap="round" stroke-miterlimit="10" stroke-width="2"/>
    <line id="Linha_12" data-name="Linha 12" x1="10.116" y2="4.306" transform="translate(0 10.868)" fill="none" stroke="#fff" stroke-linecap="round" stroke-miterlimit="10" stroke-width="2"/>
  </g>
  <g id="Grupo_6" data-name="Grupo 6" transform="translate(7.795 16.963)">
    <path id="Caminho_54" data-name="Caminho 54" d="M75.039,123.258a6.229,6.229,0,1,1,6.229-6.228A6.236,6.236,0,0,1,75.039,123.258Z" transform="translate(-68.81 -110.8)" fill="#fff"/>
    <ellipse id="Elipse_5" data-name="Elipse 5" cx="3.797" cy="3.797" rx="3.797" ry="3.797" transform="translate(3.609 2.432)"/>
    <ellipse id="Elipse_6" data-name="Elipse 6" cx="1.208" cy="1.208" rx="1.208" ry="1.208" transform="translate(9.068 4.207)" fill="#fff"/>
  </g>
  <g id="Grupo_7" data-name="Grupo 7" transform="translate(26.975 16.963)">
    <path id="Caminho_55" data-name="Caminho 55" d="M189.054,123.258a6.229,6.229,0,1,1,6.229-6.228A6.236,6.236,0,0,1,189.054,123.258Z" transform="translate(-182.825 -110.8)" fill="#fff"/>
    <ellipse id="Elipse_7" data-name="Elipse 7" cx="3.797" cy="3.797" rx="3.797" ry="3.797" transform="translate(3.974 2.432)"/>
    <ellipse id="Elipse_8" data-name="Elipse 8" cx="1.208" cy="1.208" rx="1.208" ry="1.208" transform="translate(9.6 4.207)" fill="#fff"/>
  </g>
  <path id="Caminho_56" data-name="Caminho 56" d="M150.6,225.2a1.39,1.39,0,0,0-1.144.6.252.252,0,0,1-.437,0,1.389,1.389,0,0,0-2.435,1.3,5.282,5.282,0,0,0,2.653,2.68,5.281,5.281,0,0,0,2.653-2.68,1.387,1.387,0,0,0-1.29-1.9Z" transform="translate(-125.628 -188.997)" fill="#f759af"/>
</svg>
