<svg id="Camada_1" data-name="Camada 1" xmlns="http://www.w3.org/2000/svg" viewBox="0 0 476.55 304.03"><defs><style>.cls-1{fill:#fff;}</style></defs><path class="cls-1" d="M71.69,278.14c0-6.54,2.57-9,9.27-9a16.89,16.89,0,0,1,5.89,1l-.21,2.29a16.18,16.18,0,0,0-5.68-1c-5.11,0-6.8,1.71-6.8,6.75s1.69,6.74,6.8,6.74a15.94,15.94,0,0,0,5.68-1l.21,2.28a16.89,16.89,0,0,1-5.89,1C74.29,287.14,71.69,284.68,71.69,278.14Z"/><path class="cls-1" d="M89.83,268.51h2.34v18.32H89.83Z"/><path class="cls-1" d="M98.46,268.56h2.86l-3.81,4.13H95.15ZM96.1,274.4h2.34v12.43H96.1Z"/><path class="cls-1" d="M102.39,274.4h1.76l.26,1.3a9.59,9.59,0,0,1,5.27-1.61c3.19,0,4.64,1.43,4.64,4.57v8.16H112V279.2c0-2.11-.86-2.94-2.94-2.94a7.51,7.51,0,0,0-4.33,1.46v9.11h-2.33Z"/><path class="cls-1" d="M117.85,269.45h2.59V272h-2.59Zm.13,4.95h2.33v12.43H118Z"/><path class="cls-1" d="M123.56,280.63c0-4.67,1.89-6.54,6.59-6.54a13.72,13.72,0,0,1,4.26.65l-.21,2.1a11.44,11.44,0,0,0-3.81-.62c-3.35,0-4.47,1.12-4.47,4.39S127,285,130.39,285a11.2,11.2,0,0,0,3.81-.63l.21,2.11a13.72,13.72,0,0,1-4.26.65C125.45,287.14,123.56,285.3,123.56,280.63Z"/><path class="cls-1" d="M136.17,283.2c0-2.83,1.53-3.87,5.57-3.87a39.16,39.16,0,0,1,4.47.29v-.32c0-2.38-.94-3.11-4.08-3.11a12.58,12.58,0,0,0-4.62.78l-.2-2.18a16.48,16.48,0,0,1,5-.7c4.7,0,6.21,1.22,6.21,5.06v7.68h-1.77l-.31-1.43a10.21,10.21,0,0,1-5.71,1.74C137.57,287.14,136.17,285.89,136.17,283.2Zm10,.2v-1.79a38.92,38.92,0,0,0-4.44-.28c-2.49,0-3.24.54-3.24,1.79s.88,1.92,2.8,1.92a8.51,8.51,0,0,0,4.88-1.64Z"/><path class="cls-1" d="M158,269.45h15.05v2.2H160.48v5.24h10.84v2.21H160.48v5.52h12.81v2.21H158Z"/><path class="cls-1" d="M175.52,286.34l.21-2.21a16.11,16.11,0,0,0,5.68.91c2.72,0,3.58-.36,3.58-1.71,0-1.07-.55-1.4-3-1.64l-1.8-.18c-3.42-.34-4.54-1.17-4.54-3.58,0-2.86,1.59-3.84,6.05-3.84a16.11,16.11,0,0,1,4.93.65l-.2,2.18a16,16,0,0,0-5-.73c-2.62,0-3.47.36-3.47,1.64,0,1,.57,1.27,3,1.53l1.8.18c3.32.34,4.49,1.17,4.49,3.71,0,2.88-1.51,3.89-6,3.89A17.59,17.59,0,0,1,175.52,286.34Z"/><path class="cls-1" d="M190.18,274.4H192l.23,1.17a10.07,10.07,0,0,1,5.32-1.48c4,0,5.58,1.87,5.58,6.51s-1.61,6.54-5.58,6.54a10,10,0,0,1-5-1.3v6.3h-2.34Zm10.54,6.23c0-3.27-1-4.44-3.69-4.44a7.91,7.91,0,0,0-4.51,1.45v5.95A7.87,7.87,0,0,0,197,285c2.72,0,3.68-1.17,3.68-4.41Z"/><path class="cls-1" d="M205.62,280.65c0-4.74,1.84-6.56,6.67-6.56,4.62,0,6.43,1.66,6.43,5.79,0,.49,0,1.14-.08,1.63H208c.21,2.75,1.46,3.53,5,3.53a12.29,12.29,0,0,0,4.83-.86l.2,2.15a14.28,14.28,0,0,1-5.06.81C207.59,287.14,205.62,285.53,205.62,280.65Zm10.79-1.14c-.18-2.54-1.22-3.32-4.1-3.32s-4.07.83-4.28,3.32Z"/><path class="cls-1" d="M221.24,280.63c0-4.67,1.89-6.54,6.59-6.54a13.62,13.62,0,0,1,4.25.65l-.2,2.1a11.54,11.54,0,0,0-3.82-.62c-3.34,0-4.46,1.12-4.46,4.39s1.12,4.41,4.46,4.41a11.3,11.3,0,0,0,3.82-.63l.2,2.11a13.62,13.62,0,0,1-4.25.65C223.12,287.14,221.24,285.3,221.24,280.63Z"/><path class="cls-1" d="M234.65,269.45h2.59V272h-2.59Zm.13,4.95h2.33v12.43h-2.33Z"/><path class="cls-1" d="M240.05,283.2c0-2.83,1.53-3.87,5.57-3.87a39.16,39.16,0,0,1,4.47.29v-.32c0-2.38-.94-3.11-4.08-3.11a12.49,12.49,0,0,0-4.61.78l-.21-2.18a16.48,16.48,0,0,1,5-.7c4.7,0,6.21,1.22,6.21,5.06v7.68h-1.77l-.31-1.43a10.21,10.21,0,0,1-5.71,1.74C241.45,287.14,240.05,285.89,240.05,283.2Zm10,.2v-1.79a38.92,38.92,0,0,0-4.44-.28c-2.49,0-3.24.54-3.24,1.79s.88,1.92,2.8,1.92a8.49,8.49,0,0,0,4.88-1.64Z"/><path class="cls-1" d="M256.08,268.51h2.33v18.32h-2.33Z"/><path class="cls-1" d="M262.23,269.45h2.59V272h-2.59Zm.13,4.95h2.33v12.43h-2.33Z"/><path class="cls-1" d="M267.7,286.34l.21-2.21a16.11,16.11,0,0,0,5.68.91c2.72,0,3.58-.36,3.58-1.71,0-1.07-.55-1.4-3-1.64l-1.8-.18c-3.42-.34-4.54-1.17-4.54-3.58,0-2.86,1.59-3.84,6-3.84a16.11,16.11,0,0,1,4.93.65l-.21,2.18a15.94,15.94,0,0,0-5-.73c-2.62,0-3.48.36-3.48,1.64,0,1,.58,1.27,3,1.53l1.79.18c3.32.34,4.49,1.17,4.49,3.71,0,2.88-1.5,3.89-6,3.89A17.59,17.59,0,0,1,267.7,286.34Z"/><path class="cls-1" d="M283.16,282.91v-6.53h-2.72v-2h2.78l.2-3.55h2.08v3.55h3.94v2H285.5v6.33c0,1.69.41,2.08,2,2.08h1.95v2.05H287C284.23,286.83,283.16,285.82,283.16,282.91Z"/><path class="cls-1" d="M291.13,283.2c0-2.83,1.53-3.87,5.58-3.87a39.13,39.13,0,0,1,4.46.29v-.32c0-2.38-.93-3.11-4.07-3.11a12.51,12.51,0,0,0-4.62.78l-.21-2.18a16.55,16.55,0,0,1,5-.7c4.69,0,6.2,1.22,6.2,5.06v7.68h-1.77l-.31-1.43a10.18,10.18,0,0,1-5.71,1.74C292.53,287.14,291.13,285.89,291.13,283.2Zm10,.2v-1.79a38.63,38.63,0,0,0-4.44-.28c-2.49,0-3.24.54-3.24,1.79s.88,1.92,2.8,1.92a8.49,8.49,0,0,0,4.88-1.64Z"/><path class="cls-1" d="M312.07,280.65c0-4.74,1.84-6.56,6.67-6.56,4.61,0,6.43,1.66,6.43,5.79,0,.49,0,1.14-.08,1.63H314.45c.21,2.75,1.46,3.53,5,3.53a12.29,12.29,0,0,0,4.83-.86l.2,2.15a14.31,14.31,0,0,1-5.06.81C314,287.14,312.07,285.53,312.07,280.65Zm10.79-1.14c-.18-2.54-1.22-3.32-4.1-3.32s-4.07.83-4.28,3.32Z"/><path class="cls-1" d="M328.28,274.4h1.77l.26,1.22a8.29,8.29,0,0,1,4.74-1.53c1.79,0,3,.52,3.61,1.68a8.73,8.73,0,0,1,5-1.68c2.91,0,4.18,1.37,4.18,4.57v8.16H345.5V279.2c0-2.13-.75-2.94-2.51-2.94a6.55,6.55,0,0,0-3.82,1.4c0,.32.06.65.06,1v8.17h-2.34v-7.63c0-2.13-.75-2.93-2.52-2.93a6.37,6.37,0,0,0-3.76,1.37v9.19h-2.33Z"/><path class="cls-1" d="M356.4,278.14c0-6.59,2.6-9,9.68-9a21.14,21.14,0,0,1,6.28.88l-.2,2.24a19.22,19.22,0,0,0-6.07-.91c-5.48,0-7.22,1.63-7.22,6.77s1.72,6.82,7,6.82a14.15,14.15,0,0,0,4.52-.62v-5H365.7v-2.21h7.11v9a20.16,20.16,0,0,1-6.75,1.07C359,287.14,356.4,284.7,356.4,278.14Z"/><path class="cls-1" d="M375.4,283.2c0-2.83,1.53-3.87,5.57-3.87a39.16,39.16,0,0,1,4.47.29v-.32c0-2.38-.94-3.11-4.08-3.11a12.58,12.58,0,0,0-4.62.78l-.2-2.18a16.48,16.48,0,0,1,5-.7c4.7,0,6.21,1.22,6.21,5.06v7.68H386l-.31-1.43a10.21,10.21,0,0,1-5.71,1.74C376.8,287.14,375.4,285.89,375.4,283.2Zm10,.2v-1.79a38.92,38.92,0,0,0-4.44-.28c-2.49,0-3.24.54-3.24,1.79s.88,1.92,2.8,1.92a8.51,8.51,0,0,0,4.88-1.64Z"/><path class="cls-1" d="M392.36,282.91v-6.53h-2.72v-2h2.77l.21-3.55h2.07v3.55h3.95v2h-3.95v6.33c0,1.69.42,2.08,2,2.08h1.95v2.05H396.2C393.43,286.83,392.36,285.82,392.36,282.91Z"/><path class="cls-1" d="M400.51,280.63c0-4.75,1.84-6.54,6.82-6.54s6.83,1.79,6.83,6.54-1.84,6.51-6.83,6.51S400.51,285.35,400.51,280.63Zm11.29,0c0-3.35-1.12-4.44-4.47-4.44s-4.46,1.09-4.46,4.44S404,285,407.33,285,411.8,284,411.8,280.63Z"/><path class="cls-1" d="M416.54,286.34l.21-2.21a16.11,16.11,0,0,0,5.68.91c2.72,0,3.58-.36,3.58-1.71,0-1.07-.55-1.4-3-1.64l-1.8-.18c-3.42-.34-4.54-1.17-4.54-3.58,0-2.86,1.59-3.84,6.05-3.84a16.11,16.11,0,0,1,4.93.65l-.2,2.18a16,16,0,0,0-5-.73c-2.62,0-3.48.36-3.48,1.64,0,1,.58,1.27,3,1.53l1.79.18c3.32.34,4.49,1.17,4.49,3.71,0,2.88-1.5,3.89-6,3.89A17.59,17.59,0,0,1,416.54,286.34Z"/><rect class="cls-1" x="70.54" y="261.28" width="358.57" height="1.99"/><rect class="cls-1" x="70.54" y="293.69" width="358.57" height="1.99"/><path class="cls-1" d="M47.92,189.5c-4.56,0-5.05-2.83-4.43-4.07,7.27-15.52,4.68-24.27-1.48-24.27-10.72,0-23,14.66-23,48.55,0,19.59,6,27.47,10.35,27.47s12-12.93,17.62-35.6c6.41-2.35,12.07-2.72,11.33,3.82l-2.58,24c-4.81,42.51-19.47,50.15-25.26,50.15-10.35,0-21.32-6.16-25.76-11.21,1.24-3.45,3.95-7,6.29-7,4.68,0,11.33,13.19,20,13.19,6.77,0,11.83-14.17,13.68-37.09L46,223.38c-8.13,17.75-16.63,22.18-23.78,22.18-5.42,0-16.14-8.25-16.14-30.8,0-25.38,15.16-59.88,38.57-59.88C67.52,154.88,57.16,189.5,47.92,189.5Z"/><path class="cls-1" d="M107.07,229.3c1.85-1.35,4.93-.49,4.31,1.72-2.22,7.64-8.62,14.3-15.89,14.42-3.08,0-7.15-1.23-8.88-7.88-3.69,6.28-7.14,7.76-11.08,7.76-8.88,0-12.57-9-12.57-19.84,0-14.3,7.76-31.54,23.41-31.54,5.3,0,11.95,3.45,10.35,11.33,1.23.74,2.09,3,.74,7.76-4.32,14.91-4.93,26.37.61,26.37C100.66,239.4,103.62,237.68,107.07,229.3Zm-22.8-29.45c-6.77,0-10.47,16.51-10.47,28.22,0,6.53,1.36,11.46,3.94,11.46,3.58,0,7.64-6.16,9.24-25.76-1.84-.49-2.46-1.35-2.34-3.32,3-3.08,4.56-10.6-.37-10.6Z"/><path class="cls-1" d="M110.4,187.78l-6.66.49c-3.57.37-3.45-3.94-2.22-6.28h9.74L114,164.61c5.3-3.45,13.55-5.05,12,.86-1.11,5.55-2.22,11-3.21,16.39l8.26-.12c5.3,0,5.67,1.6,3.94,4.93l-13.18.49c-5.42,30.56-8,55.2-1.6,55.2,7.26,0,12.07-10.59,14.29-16.76,2-1.23,4.93-.74,4.56,1.48-1,7-10.35,20.21-19.84,20.21C104.23,247.29,104.6,227.2,110.4,187.78Z"/><path class="cls-1" d="M181.74,198.5c0,7.39-5.18,17.61-15.16,20.45-3,17.74-14.05,26.37-20.33,26.37-4.31,0-13.92-2.47-13.92-20.33,0-21.94,11.21-30.56,16.26-29.7a9.59,9.59,0,0,1,6.16-2.71c6.78,0,12.57,5.3,12.57,17.13,0,1.35-.12,2.71-.12,3.94,5.17-1.6,9.73-6.78,11.33-16.88C180.5,196.15,181.74,197,181.74,198.5Zm-23.66,20.94c-6.9-1.11-13.19-5.79-13.43-11.83-4.81,15.9-.13,32.29,4.68,32.29,5,0,7.64-10.48,8.75-20.46Zm.49-6.65V210.2c0-10.84-5.3-13.92-6.16-11.09-1.48,4.56,1.36,10.84,6.16,13.68Z"/><path class="cls-1" d="M229.75,161.65c0,20-3.08,41.65-8.62,58-.12,13.55.61,19.71,2.59,19.71,2.58,0,5.54-1.72,9-10.1,1.85-1.36,4.93-.5,4.31,1.72-2.22,7.64-8.62,14.3-15.89,14.3-3.7,0-5.92-3.7-7-10.23-4.06,6.41-8.87,10.11-14.17,10.23-7.14,0-12.07-10.35-12.07-22.67,0-14.05,7-29.2,16.76-29.2a16.54,16.54,0,0,1,10,3c.86-10.84,2.21-23.41,3.69-36.72C227.66,152.78,229.75,155.12,229.75,161.65ZM214.23,201.2a16.14,16.14,0,0,0-5.91-1.1c-9.61,0-12.2,38.81-5.3,38.81,4.81,0,8.13-9.12,10.35-23.41.12-4.31.49-9.12.86-14.29Z"/><path class="cls-1" d="M275.47,229.3c1.84-1.36,4.92-.49,4.31,1.72-2.22,7.64-8.63,14.3-15.9,14.42-3.08,0-7.14-1.23-8.87-7.89-3.69,6.29-7.15,7.76-11.09,7.76-8.87,0-12.57-9-12.57-19.83,0-14.3,7.76-31.55,23.42-31.55,5.29,0,12,3.46,10.35,11.34,1.23.74,2.09,3,.74,7.76-4.32,14.91-4.93,26.37.61,26.37C269.06,239.4,272,237.68,275.47,229.3Zm-22.8-29.45c-6.78,0-10.47,16.51-10.47,28.22,0,6.53,1.35,11.46,3.94,11.46,3.57,0,7.64-6.16,9.24-25.76-1.85-.49-2.46-1.35-2.34-3.32C256,207.37,257.6,199.85,252.67,199.85Zm16.53-32.27c2.38-3.66,7.63-1.43,8.3,3.2-5.55,6.33-11.25,12.43-16.94,18.64-2,2.22-4.62.79-4.73-1.31C260.22,181.61,265.22,174.26,269.2,167.58Z"/><path class="cls-1" d="M294.79,228.19c1.85,0,4.44.74,3.7,3-3.33,10.1-3.21,19.47,5.67,19.47,3.2,0,10.47-3.45,10.59-13.18,0-19.23-24.52-19.72-24.52-48.3,0-23.66,15.52-39.31,28.71-39.31,23,0,16.51,35.86,4.07,35.86-1.85,0-4.44-.74-3.94-3,1.35-3.58,9.73-27.11-2.84-27.11-7.15,0-13.18,14.78-13.18,30.43,0,22.8,22.05,25.88,22.05,47.08,0,13.92-13.31,21.44-22.67,21.44C281,254.56,283.46,228.19,294.79,228.19Z"/><path class="cls-1" d="M344.82,197.51a9.9,9.9,0,0,1,7.88-4.93c6.78,0,12.57,5.3,12.57,17.13s-3.32,20.7-7.64,26.61a6,6,0,0,0,5.05,2.71c8.51,0,10.36-17.12,11.09-28.71-3.45-1.35-5.42-4.18-5.42-10.22,0-4.93,3.45-14.91,11-11.34a60.45,60.45,0,0,1,1.48,13.8c5.79.13,12.44-.86,15-2.59,1.85.13,3.57.74,2.59,4.07-7.27,25.26-4.69,35.36-1,35.36,2.59,0,5.55-1.72,9-10.1,1.84-1.35,4.92-.49,4.31,1.72-2.22,7.64-8.63,14.3-15.9,14.3-5.79,0-14-6.78-9.24-34.13-1.85.12-3.57.25-5.17.25-1.85,17.25-8.88,34.25-20,34.25a9.63,9.63,0,0,1-8-3.94c-3,2.34-5.92,3.57-8.26,3.57-4.31,0-13.92-2.46-13.92-20.33C330.28,204.16,339.77,197,344.82,197.51Zm9,34a69,69,0,0,0,2.47-15.65c-3.33,2.1-12.82.62-13.68-7.51-5.05,16-.25,31.54,4.68,31.54a4.49,4.49,0,0,0,3.58-2.09v-1.24c0-2.21.61-4.31,2.95-5Zm2.71-18.73V210.2c0-10.84-5.29-13.92-6.16-11.09-1.23,3.82-.49,10.11,6.16,13.68Z"/><path class="cls-1" d="M409.75,187.78l-6.65.49c-3.57.37-3.45-3.94-2.22-6.28h9.74l2.71-17.38c5.3-3.45,13.55-5.05,11.94.86-1.11,5.55-2.21,11-3.2,16.39l8.26-.12c5.29,0,5.66,1.6,3.94,4.93l-13.18.49c-5.43,30.56-8,55.2-1.61,55.2,7.27,0,12.08-10.59,14.3-16.76,2-1.23,4.93-.74,4.56,1.48-1,7-10.35,20.21-19.84,20.21C403.59,247.29,404,227.2,409.75,187.78Z"/><path class="cls-1" d="M444.13,235.09c1.6,5.67,4.93,8.5,8.87,8.5,5.67,0,11.09-7.27,14.3-16.76,3.08-1.72,4.8.13,4.56,1.48-1.48,8.26-11,20.33-21.32,20.33-9.61,0-18.24-7.64-18.24-23,0-28.09,13.56-34,19.47-34,7.27,0,10.23,5.05,10.23,11.33C462,216.24,453.13,227.82,444.13,235.09Zm-1-5.54A43.24,43.24,0,0,0,453,201.7c0-2.71-.61-3.94-2-3.94-2.22,0-8,8.25-8,28.46a28.52,28.52,0,0,0,.13,3.33Z"/><path class="cls-1" d="M315.86,152c-4.09-21.8-23.17-16.17-34.43-4.06-11,11.85-22.25,11.93-29.72,9.91a35.3,35.3,0,0,1-12.56-6.45c-46.18,8.37-87.61-30.64-81.39-77.69,7.12-53.79,72.55-80.53,115-43,3.72,2.37,28.4,26.23,22.77,62.85a2.46,2.46,0,1,1-4.87-.75,64.65,64.65,0,0,0,.61-14.47c-2.17,9.25-6.29,17.38-7,18.2a72,72,0,0,1,0,16,63.6,63.6,0,0,0,3.76-8.84,2.46,2.46,0,0,1,4.66,1.58A69.61,69.61,0,0,1,245.61,150c10.75,6.45,22.14,5.51,32.21-5.32,15.44-16.6,38.26-18.13,42.88,6.5a2.46,2.46,0,0,1-4.84.91ZM193.48,138.41a76.09,76.09,0,0,1-9.89-12,73.87,73.87,0,0,1-9.91-6.5A65,65,0,0,0,193.48,138.41ZM166.33,106a69.7,69.7,0,0,0,12.1,11.26,74.61,74.61,0,0,1-4-10,71.28,71.28,0,0,1-10.21-7.64A66.23,66.23,0,0,0,166.33,106Zm-3.75-15a66,66,0,0,0,10,9.06,74.05,74.05,0,0,1-1.24-7.87,71.45,71.45,0,0,1-9.15-5.32C162.28,88.43,162.42,89.75,162.58,91Zm-.47-10.26A65.74,65.74,0,0,0,171,86.51c-.07-2.37,0-4.72.13-7.28s.46-5,.87-7.52a63.18,63.18,0,0,0-9.48,3.94C162.25,77.76,162.16,79.31,162.11,80.77Zm1.32-11a68.27,68.27,0,0,1,9.65-3.5,75.52,75.52,0,0,1,3.39-10.56,65.5,65.5,0,0,0-10.43,5A63,63,0,0,0,163.43,69.74ZM174,45.62a65.29,65.29,0,0,0-4.73,7.78,69.48,69.48,0,0,1,10.06-3.84,74.56,74.56,0,0,1,5.88-9.6A65.83,65.83,0,0,0,174,45.62Zm8.73-10a69.13,69.13,0,0,1,8.2-2.73,76.09,76.09,0,0,1,10.29-9.37A65,65,0,0,0,182.68,35.65Zm84.81-2.93a52.44,52.44,0,0,0-25.9,5.72A70.57,70.57,0,0,1,264,53.75,65.91,65.91,0,0,0,268.9,33.9C268.44,33.5,268,33.11,267.49,32.72Zm11.13,11.61a66.37,66.37,0,0,0-5.26-6.21,70.88,70.88,0,0,1-5.78,19.6A71.81,71.81,0,0,1,275,68.25,66.92,66.92,0,0,0,278.62,44.33Zm9.7,18.75a63.66,63.66,0,0,0-4.94-11.38A71.33,71.33,0,0,1,278,74.09a72.86,72.86,0,0,1,4.86,14.21A68.75,68.75,0,0,0,288.32,63.08ZM272,129.17a63.56,63.56,0,0,0,5.06-5.56c10-34.08-8.07-70-40.85-82a54,54,0,0,0-10.88,9.65C257.27,62.59,276.82,95.29,272,129.17Zm-6,5.16c7.88-34.06-11.21-68.27-43.9-79a52,52,0,0,0-6.07,11.42,71.87,71.87,0,0,1,44.49,71.32A65.52,65.52,0,0,0,266.05,134.33ZM248.17,102.4a67.44,67.44,0,0,0-8.92-13.14,71.83,71.83,0,0,1-25,9.17,53.08,53.08,0,0,0,5.89,14.13A66.62,66.62,0,0,0,248.17,102.4Zm-25,14.7A53.54,53.54,0,0,0,235,128.68a68.64,68.64,0,0,0,19.53-7.91,68.23,68.23,0,0,0-4.27-13.9A71.5,71.5,0,0,1,223.17,117.1Zm12.64-31.52a65.44,65.44,0,0,0-21.28-14.13,52.53,52.53,0,0,0-1.29,22.16A65.8,65.8,0,0,0,235.81,85.58Zm19.87,51.89a67.5,67.5,0,0,0-.31-11.48,73.6,73.6,0,0,1-14.59,6.24A52.1,52.1,0,0,0,255.68,137.47ZM253.14,142A56.56,56.56,0,0,1,219,119.92c-27.47-37.63-2.22-88.49,41.75-92a64.54,64.54,0,0,0-12.53-6A63.57,63.57,0,0,0,195,73.21a2.46,2.46,0,0,1-4.84-.91,68.75,68.75,0,0,1,47.71-53.09,65.15,65.15,0,0,0-18.53-.53c-53,22.48-59.43,96.78-8.48,127a65.07,65.07,0,0,0,18.44,1.94A68.67,68.67,0,0,1,189,84.16a2.45,2.45,0,0,1,2.49-2.43h.13a2.48,2.48,0,0,1,2.3,2.49,63.71,63.71,0,0,0,46.05,62.06A63.93,63.93,0,0,0,253.14,142Z"/></svg>