<svg xmlns="http://www.w3.org/2000/svg" width="265.904" height="72.259" viewBox="0 0 265.904 72.259"><g transform="translate(0)"><path d="M211.8,149a2.107,2.107,0,1,1-2.255,2.1A2.183,2.183,0,0,1,211.8,149Z" transform="translate(-171.513 -120.73)"/><path d="M86.385,69.248c-1.569-2.752-3.347-5.872-3.347-10.767,0-8.19,4.873-11.072,5.072-11.185a1.361,1.361,0,0,0,.531-1.937,1.58,1.58,0,0,0-2.079-.5C86.295,45.011,80,48.6,80,58.481c0,5.6,2.052,9.2,3.7,12.095,1.182,2.071,2.114,3.709,2.114,5.581a3.589,3.589,0,0,1-.9,2.8,2.092,2.092,0,0,1-1.4.428,1.607,1.607,0,0,0-.219-.015H77.707A5.77,5.77,0,0,0,78.74,76.1V12.349a1.434,1.434,0,0,0-1.111-1.362,1.566,1.566,0,0,0-1.705.631L68.515,23.05c-2.273-.04-8.953-.089-28.949-.089-4.246,0-6.347,0-7.409.01L25.332,10.72A1.558,1.558,0,0,0,23.626,10a1.438,1.438,0,0,0-1.158,1.374V76.1a6.345,6.345,0,0,0,6.548,6.1H83.208c.1.008.241.017.417.017a5.21,5.21,0,0,0,3.251-1.1,6.02,6.02,0,0,0,1.977-4.963C88.853,73.579,87.655,71.475,86.385,69.248Z" transform="translate(-22.468 -9.957)"/></g><g transform="translate(67.941 17.549)"><path d="M374.228,120.463c-1.855,0-2.055-1.153-1.8-1.654,2.957-6.316,1.9-9.875-.6-9.875-4.361,0-9.374,5.965-9.374,19.75,0,7.97,2.456,11.179,4.211,11.179s4.862-5.263,7.168-14.487c2.607-.953,4.912-1.1,4.612,1.554l-1.053,9.775c-1.955,17.294-7.92,20.4-10.276,20.4a15.714,15.714,0,0,1-10.476-4.562c.5-1.4,1.6-2.857,2.556-2.857,1.9,0,4.612,5.364,8.121,5.364,2.757,0,4.812-5.765,5.564-15.088l.552-5.714c-3.308,7.218-6.767,9.023-9.675,9.023-2.206,0-6.567-3.358-6.567-12.532,0-10.326,6.166-24.362,15.69-24.362C382.2,106.377,377.988,120.463,374.228,120.463Z" transform="translate(-356.634 -104.322)"/><path d="M491.2,198.92c.752-.551,2.005-.2,1.755.7-.9,3.108-3.509,5.815-6.467,5.865-1.253,0-2.907-.5-3.609-3.208-1.5,2.556-2.907,3.158-4.511,3.158-3.609,0-5.113-3.659-5.113-8.071,0-5.815,3.158-12.832,9.524-12.832,2.155,0,4.862,1.4,4.211,4.612.5.3.852,1.2.3,3.158-1.755,6.065-2.005,10.727.25,10.727C488.593,203.03,489.8,202.328,491.2,198.92Zm-9.273-11.98c-2.757,0-4.261,6.717-4.261,11.479,0,2.657.551,4.662,1.6,4.662,1.454,0,3.108-2.506,3.76-10.476a1.1,1.1,0,0,1-.953-1.353C483.279,190,483.931,186.939,481.926,186.939Z" transform="translate(-449.543 -166.588)"/><path d="M552.787,130.359l-2.707.2c-1.453.15-1.4-1.6-.9-2.556h3.96l1.1-7.068c2.156-1.4,5.514-2.055,4.862.351-.451,2.256-.9,4.461-1.3,6.667l3.359-.05c2.155,0,2.306.652,1.6,2.005l-5.364.2c-2.206,12.432-3.258,22.457-.652,22.457,2.957,0,4.912-4.311,5.815-6.817.8-.5,2.005-.3,1.854.6-.4,2.857-4.211,8.221-8.07,8.221C550.28,154.571,550.43,146.4,552.787,130.359Z" transform="translate(-509.777 -114.92)"/><path d="M632.162,184.227A8.976,8.976,0,0,1,626,192.548c-1.2,7.219-5.714,10.727-8.271,10.727-1.755,0-5.665-1-5.665-8.271,0-8.922,4.562-12.431,6.617-12.081a3.879,3.879,0,0,1,2.506-1.1c2.757,0,5.113,2.155,5.113,6.968,0,.551-.05,1.1-.05,1.6,2.105-.652,3.96-2.757,4.612-6.867C631.661,183.275,632.162,183.626,632.162,184.227Zm-9.625,8.522c-2.807-.451-5.364-2.356-5.464-4.812-1.955,6.466-.05,13.133,1.9,13.133C621.034,201.07,622.086,196.809,622.537,192.749Zm.2-2.707v-1.053c0-4.411-2.156-5.664-2.506-4.512C619.63,186.333,620.783,188.889,622.738,190.042Z" transform="translate(-560.129 -164.427)"/><path d="M756.57,110.134a78.048,78.048,0,0,1-3.509,23.61c-.05,5.514.25,8.02,1.053,8.02,1.053,0,2.256-.7,3.659-4.11.752-.551,2.005-.2,1.755.7-.9,3.108-3.509,5.815-6.466,5.815-1.5,0-2.406-1.5-2.857-4.161-1.654,2.607-3.609,4.111-5.765,4.161-2.908,0-4.913-4.211-4.913-9.223,0-5.714,2.858-11.88,6.817-11.88a6.739,6.739,0,0,1,4.06,1.2c.351-4.411.9-9.524,1.5-14.938C755.718,106.524,756.57,107.477,756.57,110.134Zm-6.316,16.091a6.607,6.607,0,0,0-2.406-.451c-3.91,0-4.963,15.79-2.156,15.79,1.955,0,3.308-3.71,4.211-9.524C749.953,130.285,750.1,128.33,750.254,126.225Z" transform="translate(-661.679 -105.322)"/><path d="M844.507,155.376c.752-.551,2-.2,1.754.7-.9,3.108-3.509,5.815-6.467,5.865-1.253,0-2.907-.5-3.609-3.208-1.5,2.556-2.907,3.158-4.511,3.158-3.61,0-5.113-3.659-5.113-8.071,0-5.815,3.158-12.832,9.524-12.832,2.155,0,4.862,1.4,4.211,4.612.5.3.852,1.2.3,3.158-1.755,6.065-2.005,10.727.25,10.727C841.9,159.487,843.1,158.785,844.507,155.376Zm-9.274-11.98c-2.757,0-4.261,6.717-4.261,11.479,0,2.657.551,4.662,1.6,4.662,1.454,0,3.108-2.506,3.76-10.476a1.1,1.1,0,0,1-.953-1.353C836.586,146.454,837.238,143.4,835.233,143.4Zm3.108-12.983c1.2-1.3,3.158-.05,3.108,1.855-2.657,2.156-5.364,4.211-8.071,6.316a1.053,1.053,0,0,1-1.8-.852C833.78,135.426,836.286,132.819,838.341,130.413Z" transform="translate(-731.018 -123.044)"/><path d="M962.34,128.15c.752,0,1.8.3,1.5,1.2-1.354,4.11-1.3,7.92,2.306,7.92,1.3,0,4.261-1.4,4.311-5.364,0-7.82-9.975-8.02-9.975-19.65,0-9.624,6.316-15.99,11.679-15.99,9.374,0,6.717,14.587,1.654,14.587-.752,0-1.8-.3-1.6-1.2.551-1.454,3.96-11.028-1.153-11.028-2.907,0-5.364,6.015-5.364,12.381,0,9.273,8.973,10.527,8.973,19.149,0,5.664-5.414,8.722-9.224,8.722C956.726,138.877,957.729,128.15,962.34,128.15Z" transform="translate(-836.42 -96.269)"/><path d="M1052.893,176.531a4.027,4.027,0,0,1,3.208-2.005c2.757,0,5.113,2.155,5.113,6.968a18.186,18.186,0,0,1-3.108,10.828,2.459,2.459,0,0,0,2.055,1.1c3.459,0,4.211-6.968,4.511-11.68-1.4-.551-2.205-1.7-2.205-4.161,0-2.005,1.4-6.065,4.461-4.612a24.411,24.411,0,0,1,.6,5.614c2.356.05,5.063-.351,6.116-1.053.752.05,1.454.3,1.053,1.654-2.958,10.276-1.905,14.387-.4,14.387,1.053,0,2.256-.7,3.66-4.11.752-.551,2.005-.2,1.755.7-.9,3.108-3.509,5.815-6.466,5.815-2.356,0-5.715-2.757-3.76-13.885-.752.05-1.453.1-2.105.1-.752,7.018-3.609,13.935-8.121,13.935a3.919,3.919,0,0,1-3.258-1.6,5.825,5.825,0,0,1-3.358,1.453c-1.755,0-5.664-1-5.664-8.271C1046.978,179.238,1050.838,176.331,1052.893,176.531Zm3.659,13.835a28.2,28.2,0,0,0,1-6.366c-1.353.852-5.213.251-5.564-3.058-2.055,6.517-.1,12.833,1.9,12.833a1.812,1.812,0,0,0,1.454-.852v-.5A1.89,1.89,0,0,1,1056.552,190.366Zm1.1-7.619v-1.053c0-4.411-2.156-5.664-2.506-4.512A4.668,4.668,0,0,0,1057.655,182.747Z" transform="translate(-906.621 -157.132)"/><path d="M1190.615,130.359l-2.707.2c-1.453.15-1.4-1.6-.9-2.556h3.96l1.1-7.068c2.156-1.4,5.514-2.055,4.862.351-.451,2.256-.9,4.461-1.3,6.667l3.358-.05c2.156,0,2.306.652,1.6,2.005l-5.364.2c-2.206,12.432-3.258,22.457-.652,22.457,2.957,0,4.912-4.311,5.815-6.817.8-.5,2.005-.3,1.855.6-.4,2.857-4.211,8.221-8.07,8.221C1188.109,154.571,1188.259,146.4,1190.615,130.359Z" transform="translate(-1017.925 -114.92)"/><path d="M1255.936,197.544c.652,2.306,2.005,3.459,3.609,3.459,2.306,0,4.512-2.957,5.815-6.818,1.253-.7,1.955.05,1.855.6-.6,3.359-4.461,8.271-8.672,8.271-3.91,0-7.418-3.108-7.418-9.374,0-11.429,5.514-13.835,7.92-13.835,2.957,0,4.16,2.055,4.16,4.612C1263.2,189.874,1259.6,194.586,1255.936,197.544Zm-.4-2.256a17.577,17.577,0,0,0,4.01-11.329c0-1.1-.25-1.6-.8-1.6-.9,0-3.258,3.359-3.258,11.579A11.3,11.3,0,0,0,1255.535,195.288Z" transform="translate(-1069.261 -162.856)"/></g><g transform="translate(36.7 39.263)"><line y1="7.683" x2="12.226" transform="translate(0)" fill="none" stroke="#fff" stroke-linecap="round" stroke-miterlimit="10" stroke-width="2"/><line y1="0.496" x2="12.226" transform="translate(0 9.789)" fill="none" stroke="#fff" stroke-linecap="round" stroke-miterlimit="10" stroke-width="2"/><line x2="12.226" y2="5.204" transform="translate(0 13.135)" fill="none" stroke="#fff" stroke-linecap="round" stroke-miterlimit="10" stroke-width="2"/></g><g transform="translate(8.156 39.263)"><line x1="12.226" y1="7.683" transform="translate(0)" fill="none" stroke="#fff" stroke-linecap="round" stroke-miterlimit="10" stroke-width="2"/><line x1="12.226" y1="0.496" transform="translate(0 9.789)" fill="none" stroke="#fff" stroke-linecap="round" stroke-miterlimit="10" stroke-width="2"/><line x1="12.226" y2="5.204" transform="translate(0 13.135)" fill="none" stroke="#fff" stroke-linecap="round" stroke-miterlimit="10" stroke-width="2"/></g><g transform="translate(9.422 20.503)"><path d="M76.339,125.857a7.529,7.529,0,1,1,7.529-7.528A7.537,7.537,0,0,1,76.339,125.857Z" transform="translate(-68.81 -110.8)" fill="#fff"/><ellipse cx="4.589" cy="4.589" rx="4.589" ry="4.589" transform="translate(4.363 2.94)"/><ellipse cx="1.46" cy="1.46" rx="1.46" ry="1.46" transform="translate(10.96 5.085)" fill="#fff"/></g><g transform="translate(32.603 20.503)"><path d="M190.354,125.857a7.529,7.529,0,1,1,7.529-7.528A7.537,7.537,0,0,1,190.354,125.857Z" transform="translate(-182.825 -110.8)" fill="#fff"/><ellipse cx="4.589" cy="4.589" rx="4.589" ry="4.589" transform="translate(4.804 2.94)"/><ellipse cx="1.46" cy="1.46" rx="1.46" ry="1.46" transform="translate(11.604 5.085)" fill="#fff"/></g><path d="M151.463,225.2a1.68,1.68,0,0,0-1.383.726.3.3,0,0,1-.528,0,1.678,1.678,0,0,0-2.943,1.572,6.384,6.384,0,0,0,3.207,3.239,6.383,6.383,0,0,0,3.206-3.239,1.677,1.677,0,0,0-1.559-2.3Z" transform="translate(-121.274 -181.442)" fill="#f759af"/></svg>