<svg xmlns="http://www.w3.org/2000/svg" width="68" height="68" viewBox="0 0 68 68"><g transform="translate(0 0.095)"><circle cx="34" cy="34" r="34" transform="translate(0 -0.095)" fill="#a8e379"/><g transform="translate(10.483 10.483)"><path d="M269.085,185.86a.99.99,0,0,1-.111-1.974,21.432,21.432,0,0,0,14.8-33.967.99.99,0,0,1,1.6-1.172A23.412,23.412,0,0,1,269.2,185.853.944.944,0,0,1,269.085,185.86Z" transform="translate(-243.09 -139.187)" fill="#fff"/><path d="M170.614,177.28a4.109,4.109,0,0,1-1.571-.31,37.156,37.156,0,0,1-20.113-20.113,4.148,4.148,0,0,1,.28-3.705,2.376,2.376,0,0,0,.375-1.025,2.664,2.664,0,0,1,2.119-2.394l3.712-.749a2.677,2.677,0,0,1,2.822,1.249l1.974,3.3a2.676,2.676,0,0,1-.239,3.077l-1.175,1.414a29.086,29.086,0,0,0,9.074,9.074l1.415-1.174a2.675,2.675,0,0,1,3.077-.239l3.3,1.973a2.676,2.676,0,0,1,1.249,2.822l-.749,3.712a2.665,2.665,0,0,1-2.394,2.119,2.376,2.376,0,0,0-1.025.375A4.145,4.145,0,0,1,170.614,177.28Zm-19.055-25a4.3,4.3,0,0,1-.652,1.891,2.132,2.132,0,0,0-.146,1.93A35.174,35.174,0,0,0,169.8,175.14a2.13,2.13,0,0,0,1.93-.146,4.3,4.3,0,0,1,1.891-.652.669.669,0,0,0,.608-.537l.749-3.711a.693.693,0,0,0-.324-.731l-3.3-1.973a.693.693,0,0,0-.8.062l-1.959,1.628a.991.991,0,0,1-1.139.089,31.036,31.036,0,0,1-10.72-10.72.99.99,0,0,1,.089-1.139l1.628-1.96a.693.693,0,0,0,.062-.8l-1.974-3.3a.693.693,0,0,0-.731-.324l-3.711.749A.668.668,0,0,0,151.559,152.282Z" transform="translate(-139.383 -139.697)" fill="#fff"/><path d="M100.078,125.7c-.029,0-.058,0-.087,0a23.127,23.127,0,0,1-9.623-3.027L83.622,123.9a2.309,2.309,0,0,1-2.686-2.686l1.188-6.534a23.516,23.516,0,0,1,19.927-35.707h.126A23.37,23.37,0,0,1,117.728,85a.99.99,0,1,1-1.327,1.469A21.431,21.431,0,0,0,84,113.939a.992.992,0,0,1,.141.712l-1.257,6.913a.33.33,0,0,0,.384.384l7.108-1.292a.986.986,0,0,1,.685.124,21.158,21.158,0,0,0,9.1,2.944.99.99,0,0,1-.085,1.976Z" transform="translate(-78.638 -78.969)" fill="#fff"/></g></g></svg>