<svg xmlns="http://www.w3.org/2000/svg" width="39" height="39" viewBox="0 0 39 39"><g transform="translate(-435 -4444)"><circle cx="19.5" cy="19.5" r="19.5" transform="translate(435 4444)" fill="#ff605a"/><g transform="translate(441 4450)"><path d="M268.662,169.816a.567.567,0,0,1-.063-1.13,12.267,12.267,0,0,0,8.473-19.441.567.567,0,0,1,.913-.671,13.4,13.4,0,0,1-9.258,21.238A.541.541,0,0,1,268.662,169.816Z" transform="translate(-253.784 -143.102)" fill="#fff"/><path d="M161.208,165.157a2.352,2.352,0,0,1-.9-.178A21.266,21.266,0,0,1,148.8,153.468a2.374,2.374,0,0,1,.16-2.121,1.36,1.36,0,0,0,.215-.587,1.525,1.525,0,0,1,1.213-1.37l2.124-.428a1.532,1.532,0,0,1,1.615.715l1.13,1.892a1.532,1.532,0,0,1-.137,1.761l-.672.809a16.648,16.648,0,0,0,5.193,5.193l.81-.672a1.531,1.531,0,0,1,1.761-.137l1.891,1.129a1.532,1.532,0,0,1,.715,1.615l-.428,2.124a1.525,1.525,0,0,1-1.37,1.213,1.36,1.36,0,0,0-.587.215A2.372,2.372,0,0,1,161.208,165.157ZM150.3,150.849a2.459,2.459,0,0,1-.373,1.082,1.22,1.22,0,0,0-.084,1.1,20.132,20.132,0,0,0,10.9,10.9,1.219,1.219,0,0,0,1.1-.084,2.459,2.459,0,0,1,1.082-.373.383.383,0,0,0,.348-.307l.428-2.124a.4.4,0,0,0-.185-.418l-1.891-1.129a.4.4,0,0,0-.456.035l-1.121.932a.567.567,0,0,1-.652.051,17.763,17.763,0,0,1-6.136-6.136.566.566,0,0,1,.051-.652l.932-1.122a.4.4,0,0,0,.035-.456l-1.13-1.891a.4.4,0,0,0-.418-.185l-2.124.428A.382.382,0,0,0,150.3,150.849Z" transform="translate(-143.333 -143.646)" fill="#fff"/><path d="M90.91,105.716l-.05,0a13.237,13.237,0,0,1-5.508-1.733l-3.861.7a1.322,1.322,0,0,1-1.537-1.537l.68-3.74A13.46,13.46,0,0,1,92.039,78.969h.072a13.376,13.376,0,0,1,8.9,3.45.567.567,0,1,1-.76.841A12.266,12.266,0,0,0,81.707,98.984a.568.568,0,0,1,.081.407l-.719,3.957a.189.189,0,0,0,.22.22l4.068-.74a.564.564,0,0,1,.392.071,12.11,12.11,0,0,0,5.21,1.685.567.567,0,0,1-.048,1.131Z" transform="translate(-78.638 -78.969)" fill="#fff"/></g></g></svg>