<svg xmlns="http://www.w3.org/2000/svg" width="68" height="68" viewBox="0 0 68 68"><g transform="translate(0 0.095)"><g transform="translate(0 -0.095)" fill="#a8e379"><path d="M 34 67.5 C 29.47731018066406 67.5 25.09016990661621 66.61434173583984 20.96043968200684 64.86760711669922 C 16.97134971618652 63.18035888671875 13.38866996765137 60.76482009887695 10.31192016601563 57.68807983398438 C 7.235179901123047 54.611328125 4.819640159606934 51.02864837646484 3.132390022277832 47.03955841064453 C 1.3856600522995 42.90982818603516 0.5 38.52268981933594 0.5 34 C 0.5 29.47731018066406 1.3856600522995 25.09016990661621 3.132390022277832 20.96043968200684 C 4.819640159606934 16.97134971618652 7.235179901123047 13.38866996765137 10.31192016601563 10.31192016601563 C 13.38866996765137 7.235179901123047 16.97134971618652 4.819640159606934 20.96043968200684 3.132390022277832 C 25.09016990661621 1.3856600522995 29.47731018066406 0.5 34 0.5 C 38.52268981933594 0.5 42.90982818603516 1.3856600522995 47.03955841064453 3.132390022277832 C 51.02864837646484 4.819640159606934 54.611328125 7.235179901123047 57.68807983398438 10.31192016601563 C 60.76482009887695 13.38866996765137 63.18035888671875 16.97134971618652 64.86760711669922 20.96043968200684 C 66.61434173583984 25.09016990661621 67.5 29.47731018066406 67.5 34 C 67.5 38.52268981933594 66.61434173583984 42.90982818603516 64.86760711669922 47.03955841064453 C 63.18035888671875 51.02864837646484 60.76482009887695 54.611328125 57.68807983398438 57.68807983398438 C 54.611328125 60.76482009887695 51.02864837646484 63.18035888671875 47.03955841064453 64.86760711669922 C 42.90982818603516 66.61434173583984 38.52268981933594 67.5 34 67.5 Z" stroke="none"/><path d="M 34 1 C 29.54458999633789 1 25.22298049926758 1.872383117675781 21.15522003173828 3.592887878417969 C 17.2257194519043 5.254928588867188 13.69646072387695 7.634490966796875 10.66548156738281 10.66548156738281 C 7.634490966796875 13.69646072387695 5.254928588867188 17.2257194519043 3.592887878417969 21.15522003173828 C 1.872383117675781 25.22298049926758 1 29.54458999633789 1 34 C 1 38.45541000366211 1.872383117675781 42.77701950073242 3.592887878417969 46.84477996826172 C 5.254928588867188 50.7742805480957 7.634490966796875 54.30353927612305 10.66548156738281 57.33451843261719 C 13.69646072387695 60.36550903320313 17.2257194519043 62.74507141113281 21.15522003173828 64.40711212158203 C 25.22298049926758 66.12761688232422 29.54458999633789 67 34 67 C 38.45541000366211 67 42.77701950073242 66.12761688232422 46.84477996826172 64.40711212158203 C 50.7742805480957 62.74507141113281 54.30353927612305 60.36550903320313 57.33451843261719 57.33451843261719 C 60.36550903320313 54.30353927612305 62.74507141113281 50.7742805480957 64.40711212158203 46.84477996826172 C 66.12761688232422 42.77701950073242 67 38.45541000366211 67 34 C 67 29.54458999633789 66.12761688232422 25.22298049926758 64.40711212158203 21.15522003173828 C 62.74507141113281 17.2257194519043 60.36550903320313 13.69646072387695 57.33451843261719 10.66548156738281 C 54.30353927612305 7.634490966796875 50.7742805480957 5.254928588867188 46.84477996826172 3.592887878417969 C 42.77701950073242 1.872383117675781 38.45541000366211 1 34 1 M 34 0 C 52.77767944335938 0 68 15.22232055664063 68 34 C 68 52.77767944335938 52.77767944335938 68 34 68 C 15.22232055664063 68 0 52.77767944335938 0 34 C 0 15.22232055664063 15.22232055664063 0 34 0 Z" stroke="none" fill="#fff"/></g><g transform="translate(10.483 10.483)"><path d="M269.085,185.86a.99.99,0,0,1-.111-1.974,21.432,21.432,0,0,0,14.8-33.967.99.99,0,0,1,1.6-1.172A23.412,23.412,0,0,1,269.2,185.853.944.944,0,0,1,269.085,185.86Z" transform="translate(-243.09 -139.187)" fill="#fff"/><path d="M170.614,177.28a4.109,4.109,0,0,1-1.571-.31,37.156,37.156,0,0,1-20.113-20.113,4.148,4.148,0,0,1,.28-3.705,2.376,2.376,0,0,0,.375-1.025,2.664,2.664,0,0,1,2.119-2.394l3.712-.749a2.677,2.677,0,0,1,2.822,1.249l1.974,3.3a2.676,2.676,0,0,1-.239,3.077l-1.175,1.414a29.086,29.086,0,0,0,9.074,9.074l1.415-1.174a2.675,2.675,0,0,1,3.077-.239l3.3,1.973a2.676,2.676,0,0,1,1.249,2.822l-.749,3.712a2.665,2.665,0,0,1-2.394,2.119,2.376,2.376,0,0,0-1.025.375A4.145,4.145,0,0,1,170.614,177.28Zm-19.055-25a4.3,4.3,0,0,1-.652,1.891,2.132,2.132,0,0,0-.146,1.93A35.174,35.174,0,0,0,169.8,175.14a2.13,2.13,0,0,0,1.93-.146,4.3,4.3,0,0,1,1.891-.652.669.669,0,0,0,.608-.537l.749-3.711a.693.693,0,0,0-.324-.731l-3.3-1.973a.693.693,0,0,0-.8.062l-1.959,1.628a.991.991,0,0,1-1.139.089,31.036,31.036,0,0,1-10.72-10.72.99.99,0,0,1,.089-1.139l1.628-1.96a.693.693,0,0,0,.062-.8l-1.974-3.3a.693.693,0,0,0-.731-.324l-3.711.749A.668.668,0,0,0,151.559,152.282Z" transform="translate(-139.383 -139.697)" fill="#fff"/><path d="M100.078,125.7c-.029,0-.058,0-.087,0a23.127,23.127,0,0,1-9.623-3.027L83.622,123.9a2.309,2.309,0,0,1-2.686-2.686l1.188-6.534a23.516,23.516,0,0,1,19.927-35.707h.126A23.37,23.37,0,0,1,117.728,85a.99.99,0,1,1-1.327,1.469A21.431,21.431,0,0,0,84,113.939a.992.992,0,0,1,.141.712l-1.257,6.913a.33.33,0,0,0,.384.384l7.108-1.292a.986.986,0,0,1,.685.124,21.158,21.158,0,0,0,9.1,2.944.99.99,0,0,1-.085,1.976Z" transform="translate(-78.638 -78.969)" fill="#fff"/></g></g></svg>