<svg xmlns="http://www.w3.org/2000/svg" width="47" height="47" viewBox="0 0 47 47"><g transform="translate(2 2)"><g transform="translate(0 0)" fill="#a8e379"><path d="M 21.49999809265137 44 C 18.46295738220215 44 15.51623821258545 43.40496826171875 12.74167823791504 42.23142623901367 C 10.06227779388428 41.09813690185547 7.656137943267822 39.47593688964844 5.590097904205322 37.40990829467773 C 3.524058103561401 35.34386825561523 1.90185809135437 32.93772888183594 0.7685680985450745 30.25832748413086 C -0.4049718976020813 27.48376846313477 -1.000001907348633 24.53703880310059 -1.000001907348633 21.49999809265137 C -1.000001907348633 18.46295738220215 -0.4049718976020813 15.51623821258545 0.7685680985450745 12.74167823791504 C 1.90185809135437 10.06227779388428 3.524058103561401 7.656137943267822 5.590097904205322 5.590097904205322 C 7.656137943267822 3.524058103561401 10.06227779388428 1.90185809135437 12.74167823791504 0.7685680985450745 C 15.51623821258545 -0.4049718976020813 18.46295738220215 -1.000001907348633 21.49999809265137 -1.000001907348633 C 24.53703880310059 -1.000001907348633 27.48376846313477 -0.4049718976020813 30.25832748413086 0.7685680985450745 C 32.93772888183594 1.90185809135437 35.34386825561523 3.524058103561401 37.40990829467773 5.590097904205322 C 39.47593688964844 7.656137943267822 41.09813690185547 10.06227779388428 42.23142623901367 12.74167823791504 C 43.40496826171875 15.51623821258545 44 18.46295738220215 44 21.49999809265137 C 44 24.53703880310059 43.40496826171875 27.48376846313477 42.23142623901367 30.25832748413086 C 41.09813690185547 32.93772888183594 39.47593688964844 35.34386825561523 37.40990829467773 37.40990829467773 C 35.34386825561523 39.47593688964844 32.93772888183594 41.09813690185547 30.25832748413086 42.23142623901367 C 27.48376846313477 43.40496826171875 24.53703880310059 44 21.49999809265137 44 Z" stroke="none"/><path d="M 21.49999809265137 -3.814697265625e-06 C 9.625877380371094 -3.814697265625e-06 -3.814697265625e-06 9.625877380371094 -3.814697265625e-06 21.49999809265137 C -3.814697265625e-06 33.37411880493164 9.625877380371094 43 21.49999809265137 43 C 33.37411880493164 43 43 33.37411880493164 43 21.49999809265137 C 43 9.625877380371094 33.37411880493164 -3.814697265625e-06 21.49999809265137 -3.814697265625e-06 M 21.49999809265137 -2.000003814697266 C 24.67159843444824 -2.000003814697266 27.74938774108887 -1.378391265869141 30.64786911010742 -0.1524314880371094 C 33.44647979736328 1.031276702880859 35.95945739746094 2.725437164306641 38.11700820922852 4.882987976074219 C 40.27455902099609 7.040538787841797 41.96871948242188 9.553516387939453 43.15242767333984 12.35212898254395 C 44.37838745117188 15.25060844421387 45 18.32839775085449 45 21.49999809265137 C 45 24.67159843444824 44.37838745117188 27.74938774108887 43.15242767333984 30.64786911010742 C 41.96871948242188 33.44647979736328 40.27455902099609 35.95945739746094 38.11700820922852 38.11700820922852 C 35.95945739746094 40.27455902099609 33.44647979736328 41.96871948242188 30.64786911010742 43.15242767333984 C 27.74938774108887 44.37838745117188 24.67159843444824 45 21.49999809265137 45 C 18.32839775085449 45 15.25060844421387 44.37838745117188 12.35212898254395 43.15242767333984 C 9.553516387939453 41.96871948242188 7.040538787841797 40.27455902099609 4.882987976074219 38.11700820922852 C 2.725437164306641 35.95945739746094 1.031276702880859 33.44647979736328 -0.1524314880371094 30.64786911010742 C -1.378391265869141 27.74938774108887 -2.000003814697266 24.67159843444824 -2.000003814697266 21.49999809265137 C -2.000003814697266 18.32839775085449 -1.378391265869141 15.25060844421387 -0.1524314880371094 12.35212898254395 C 1.031276702880859 9.553516387939453 2.725437164306641 7.040538787841797 4.882987976074219 4.882987976074219 C 7.040538787841797 2.725437164306641 9.553516387939453 1.031276702880859 12.35212898254395 -0.1524314880371094 C 15.25060844421387 -1.378391265869141 18.32839775085449 -2.000003814697266 21.49999809265137 -2.000003814697266 Z" stroke="none" fill="#fff"/></g><g transform="translate(7.108 7.136)"><path d="M268.7,171.4a.609.609,0,0,1-.068-1.213,13.175,13.175,0,0,0,9.1-20.88.608.608,0,0,1,.981-.721,14.392,14.392,0,0,1-9.943,22.809A.591.591,0,0,1,268.7,171.4Z" transform="translate(-252.725 -142.714)" fill="#fff"/><path d="M162.14,166.358a2.526,2.526,0,0,1-.966-.191A22.84,22.84,0,0,1,148.811,153.8a2.55,2.55,0,0,1,.172-2.278,1.461,1.461,0,0,0,.23-.63,1.638,1.638,0,0,1,1.3-1.472l2.282-.46a1.646,1.646,0,0,1,1.735.768l1.213,2.032a1.645,1.645,0,0,1-.147,1.891l-.722.869a17.881,17.881,0,0,0,5.578,5.578l.87-.722a1.644,1.644,0,0,1,1.891-.147l2.031,1.213a1.645,1.645,0,0,1,.768,1.735l-.46,2.282a1.638,1.638,0,0,1-1.472,1.3,1.46,1.46,0,0,0-.63.23A2.548,2.548,0,0,1,162.14,166.358Zm-11.713-15.367a2.641,2.641,0,0,1-.4,1.163,1.311,1.311,0,0,0-.09,1.186,21.622,21.622,0,0,0,11.7,11.7,1.31,1.31,0,0,0,1.186-.09,2.641,2.641,0,0,1,1.163-.4.411.411,0,0,0,.374-.33l.46-2.281a.426.426,0,0,0-.2-.449l-2.031-1.213a.426.426,0,0,0-.49.038l-1.2,1a.609.609,0,0,1-.7.055,19.078,19.078,0,0,1-6.59-6.59.608.608,0,0,1,.055-.7l1-1.2a.426.426,0,0,0,.038-.49l-1.213-2.031a.426.426,0,0,0-.449-.2l-2.281.46A.41.41,0,0,0,150.427,150.991Z" transform="translate(-142.942 -143.255)" fill="#fff"/><path d="M91.818,107.7l-.054,0a14.217,14.217,0,0,1-5.915-1.861l-4.147.754a1.419,1.419,0,0,1-1.651-1.651l.73-4.017a14.456,14.456,0,0,1,12.249-21.95h.078a14.366,14.366,0,0,1,9.559,3.705.609.609,0,1,1-.816.9,13.174,13.174,0,0,0-19.917,16.888.61.61,0,0,1,.087.438l-.773,4.25a.2.2,0,0,0,.236.236l4.369-.794a.606.606,0,0,1,.421.076,13.006,13.006,0,0,0,5.6,1.81.609.609,0,0,1-.052,1.215Z" transform="translate(-78.638 -78.969)" fill="#fff"/></g></g></svg>