<svg xmlns="http://www.w3.org/2000/svg" width="32" height="32" viewBox="0 0 32 32"><g transform="translate(-0.165 0.12)"><circle cx="16" cy="16" r="16" transform="translate(0.165 -0.12)" fill="#ff605a"/><g transform="translate(4.528 5.024)"><path d="M268.555,165.774a.46.46,0,0,1-.052-.917,9.958,9.958,0,0,0,6.878-15.781.46.46,0,0,1,.741-.545,10.877,10.877,0,0,1-7.515,17.24A.438.438,0,0,1,268.555,165.774Z" transform="translate(-256.478 -144.089)" fill="#fff"/><path d="M158.839,162.1a1.909,1.909,0,0,1-.73-.144,17.263,17.263,0,0,1-9.344-9.344,1.927,1.927,0,0,1,.13-1.722,1.1,1.1,0,0,0,.174-.476,1.238,1.238,0,0,1,.984-1.112l1.724-.348a1.244,1.244,0,0,1,1.311.58l.917,1.535a1.243,1.243,0,0,1-.111,1.43l-.546.657a13.514,13.514,0,0,0,4.216,4.216l.657-.546a1.243,1.243,0,0,1,1.43-.111l1.535.917a1.243,1.243,0,0,1,.58,1.311l-.348,1.724a1.238,1.238,0,0,1-1.112.984,1.1,1.1,0,0,0-.476.174A1.926,1.926,0,0,1,158.839,162.1Zm-8.853-11.615a2,2,0,0,1-.3.879.991.991,0,0,0-.068.9,16.342,16.342,0,0,0,8.845,8.845.99.99,0,0,0,.9-.068,2,2,0,0,1,.879-.3.311.311,0,0,0,.283-.249l.348-1.724a.322.322,0,0,0-.15-.34l-1.535-.917a.322.322,0,0,0-.37.029l-.91.756a.46.46,0,0,1-.529.041,14.42,14.42,0,0,1-4.981-4.981.46.46,0,0,1,.041-.529l.756-.91a.322.322,0,0,0,.029-.37l-.917-1.535a.322.322,0,0,0-.339-.15l-1.724.348A.31.31,0,0,0,149.986,150.488Z" transform="translate(-144.329 -144.641)" fill="#fff"/><path d="M88.6,100.681l-.04,0a10.745,10.745,0,0,1-4.471-1.406l-3.134.57a1.073,1.073,0,0,1-1.248-1.248l.552-3.036a10.926,10.926,0,0,1,9.258-16.59h.059a10.858,10.858,0,0,1,7.225,2.8.46.46,0,1,1-.617.683A9.957,9.957,0,0,0,81.129,95.216a.461.461,0,0,1,.065.331l-.584,3.212a.154.154,0,0,0,.178.178l3.3-.6a.458.458,0,0,1,.318.058,9.83,9.83,0,0,0,4.229,1.368.46.46,0,0,1-.039.918Z" transform="translate(-78.638 -78.969)" fill="#fff"/></g></g></svg>